<svg width="83" height="53" viewBox="0 0 83 53" fill="none" xmlns="http://www.w3.org/2000/svg">
<path d="M27.165 25.1965C23.4298 25.1965 20.3738 24.0207 17.9968 21.669C15.6199 19.3173 14.4314 16.2938 14.4314 12.5983C14.4314 8.90278 15.6199 5.87919 17.9968 3.52752C20.3738 1.17584 23.4298 0 27.165 0C30.9002 0 33.9563 1.17584 36.3332 3.52752C38.7101 5.87919 39.8986 8.90278 39.8986 12.5983C39.8986 16.2938 38.7101 19.3173 36.3332 21.669C33.9563 24.0207 30.9002 25.1965 27.165 25.1965ZM0 52.1568V44.2619C0 42.3022 0.509344 40.5244 1.52803 38.9286C2.54672 37.3329 3.96156 36.143 5.77257 35.3591C10.0171 33.5114 13.7947 32.2096 17.1055 31.4537C20.4162 30.6978 23.7694 30.3198 27.165 30.3198C30.5606 30.3198 33.9138 30.6978 37.2246 31.4537C40.5353 32.2096 44.2846 33.5114 48.4726 35.3591C50.2836 36.199 51.7126 37.4029 52.7596 38.9706C53.8065 40.5384 54.33 42.3022 54.33 44.2619V52.1568H0ZM5.09344 47.1175H49.2366V44.2619C49.2366 43.366 49.0102 42.5122 48.5575 41.7003C48.1047 40.8884 47.3973 40.2865 46.4352 39.8945C42.4736 37.9908 39.0922 36.7589 36.2908 36.199C33.4894 35.6391 30.4475 35.3591 27.165 35.3591C23.8826 35.3591 20.8407 35.6531 18.0393 36.241C15.2379 36.8289 11.8281 38.0468 7.80994 39.8945C6.96104 40.2865 6.29606 40.8884 5.81501 41.7003C5.33396 42.5122 5.09344 43.366 5.09344 44.2619V47.1175ZM27.165 20.1572C29.3722 20.1572 31.1973 19.4433 32.6405 18.0155C34.0836 16.5877 34.8052 14.782 34.8052 12.5983C34.8052 10.4146 34.0836 8.60882 32.6405 7.18101C31.1973 5.75321 29.3722 5.03931 27.165 5.03931C24.9579 5.03931 23.1327 5.75321 21.6896 7.18101C20.2464 8.60882 19.5249 10.4146 19.5249 12.5983C19.5249 14.782 20.2464 16.5877 21.6896 18.0155C23.1327 19.4433 24.9579 20.1572 27.165 20.1572Z" fill="#5AAF3C"/>
<path d="M78.57 9.05518L60.6683 26.9569L53.6325 19.9483L49.8022 23.7786L60.6683 34.6446L82.4003 12.9126L78.57 9.05518Z" fill="#5AAF3C"/>
</svg>
