<svg width="12" height="17" viewBox="0 0 12 17" fill="none" xmlns="http://www.w3.org/2000/svg">
<path d="M0 8.25781C0 9.27865 0.208333 10.1849 0.625 10.9766C1.04688 11.7682 1.63281 12.4036 2.38281 12.8828C3.13281 13.3568 4.00521 13.6354 5 13.7188V15.5391H2.10156C1.9349 15.5391 1.79427 15.5964 1.67969 15.7109C1.5651 15.8255 1.50781 15.9661 1.50781 16.1328C1.50781 16.2943 1.5651 16.4323 1.67969 16.5469C1.79427 16.6615 1.9349 16.7188 2.10156 16.7188H9.07812C9.24479 16.7188 9.38542 16.6615 9.5 16.5469C9.61458 16.4323 9.67188 16.2943 9.67188 16.1328C9.67188 15.9661 9.61458 15.8255 9.5 15.7109C9.38542 15.5964 9.24479 15.5391 9.07812 15.5391H6.17969V13.7188C7.17448 13.6354 8.04688 13.3568 8.79688 12.8828C9.54688 12.4036 10.1302 11.7682 10.5469 10.9766C10.9688 10.1849 11.1797 9.27865 11.1797 8.25781V6.67188C11.1797 6.51042 11.1224 6.3724 11.0078 6.25781C10.8932 6.14323 10.7552 6.08594 10.5938 6.08594C10.4271 6.08594 10.2865 6.14323 10.1719 6.25781C10.0573 6.3724 10 6.51042 10 6.67188V8.21094C10 9.09635 9.81771 9.8724 9.45312 10.5391C9.08854 11.2057 8.57552 11.724 7.91406 12.0938C7.25781 12.4583 6.48438 12.6406 5.59375 12.6406C4.70312 12.6406 3.92708 12.4583 3.26562 12.0938C2.60417 11.724 2.09115 11.2057 1.72656 10.5391C1.36198 9.8724 1.17969 9.09635 1.17969 8.21094V6.67188C1.17969 6.51042 1.1224 6.3724 1.00781 6.25781C0.893229 6.14323 0.752604 6.08594 0.585938 6.08594C0.424479 6.08594 0.286458 6.14323 0.171875 6.25781C0.0572917 6.3724 0 6.51042 0 6.67188V8.25781ZM2.75 7.97656C2.75 8.57552 2.86979 9.10677 3.10938 9.57031C3.34896 10.0286 3.68229 10.388 4.10938 10.6484C4.53646 10.9089 5.03125 11.0391 5.59375 11.0391C6.15104 11.0391 6.64323 10.9089 7.07031 10.6484C7.4974 10.388 7.83073 10.0286 8.07031 9.57031C8.3099 9.10677 8.42969 8.57552 8.42969 7.97656V3.0625C8.42969 2.46354 8.3099 1.9349 8.07031 1.47656C7.83073 1.01302 7.4974 0.651042 7.07031 0.390625C6.64323 0.130208 6.15104 0 5.59375 0C5.03125 0 4.53646 0.130208 4.10938 0.390625C3.68229 0.651042 3.34896 1.01302 3.10938 1.47656C2.86979 1.9349 2.75 2.46354 2.75 3.0625V7.97656ZM3.92969 7.97656V3.0625C3.92969 2.48438 4.08073 2.02344 4.38281 1.67969C4.6901 1.33594 5.09375 1.16406 5.59375 1.16406C6.09375 1.16406 6.49479 1.33594 6.79688 1.67969C7.09896 2.02344 7.25 2.48438 7.25 3.0625V7.97656C7.25 8.55469 7.09896 9.01562 6.79688 9.35938C6.49479 9.70312 6.09375 9.875 5.59375 9.875C5.09375 9.875 4.6901 9.70312 4.38281 9.35938C4.08073 9.01562 3.92969 8.55469 3.92969 7.97656Z" fill="#56A0BB"/>
</svg>
