<svg width="105" height="54" viewBox="0 0 105 54" fill="none" xmlns="http://www.w3.org/2000/svg">
<g clip-path="url(#clip0_4855_17207)">
<path d="M25.6866 19.9736C29.3756 19.9736 32.4498 22.9847 32.4498 26.8361L32.5864 46.3032C32.5864 50.0846 29.6489 53.2358 25.8915 53.2358C22.1342 53.2358 19.1283 50.2247 19.1283 46.3733L18.9917 26.9062C18.9917 23.1248 21.9976 20.0437 25.6866 19.9736Z" fill="#6D9CB7"/>
<path d="M32.5181 26.6955C32.5181 30.4769 29.5805 33.628 25.8232 33.628L6.76321 33.7681C3.07419 33.7681 0 30.757 0 26.9056C0 23.1242 2.93756 19.9731 6.6949 19.9731L25.7549 19.833C29.4439 19.833 32.5181 22.8441 32.5181 26.6955Z" fill="#6D9CB7"/>
<path d="M25.55 0.366211C25.4817 0.366211 25.4817 0.366211 25.4134 0.366211C21.7243 0.436236 18.7185 3.58738 18.7868 7.36876L18.9917 19.9033L25.6866 19.8333H25.7549C26.1648 19.8333 26.643 19.9033 27.0529 19.9734L32.5182 19.9033L32.3132 7.15869C32.2449 3.37731 29.239 0.366211 25.55 0.366211Z" fill="#C7DADE"/>
<path d="M44.883 19.6934C44.8147 19.6934 44.8147 19.6934 44.7463 19.6934L32.4496 19.9034L26.9844 19.9735C30.0586 20.6037 32.4496 23.3347 32.4496 26.6959C32.4496 26.906 32.4496 27.046 32.4496 27.2561L32.5179 33.6985L44.9513 33.4884C48.6403 33.4184 51.6462 30.2672 51.5779 26.4858C51.5779 22.7045 48.572 19.6934 44.883 19.6934Z" fill="#C7DADE"/>
<path d="M39.9644 4.91797H41.8772V14.4414H39.9644V4.91797Z" fill="#6D9CB7"/>
<path d="M45.4978 8.34921C45.8394 7.71898 46.4542 7.29883 47.274 7.29883C48.7086 7.29883 49.6651 8.41924 49.6651 9.88977V14.4414H47.8205V10.45C47.8205 9.67969 47.3423 9.18952 46.6592 9.18952C45.976 9.18952 45.5661 9.6797 45.4978 10.38V14.4414H43.6533V7.43888H45.4978V8.34921Z" fill="#6D9CB7"/>
<path d="M51.5096 14.4421V9.12013H50.4849V7.43952H51.6462V5.96898L53.4224 5.54883V7.43952H54.5838V9.0501H53.4224V14.4421H51.5096Z" fill="#6D9CB7"/>
<path d="M56.7014 11.5707C56.8381 12.341 57.5212 12.9012 58.4776 12.9012C59.2974 12.9012 60.1855 12.6211 60.8004 12.2709V14.0916C60.1855 14.4417 59.2974 14.6518 58.341 14.6518C56.2916 14.6518 54.8569 13.1813 54.8569 11.0105C54.8569 8.97973 56.2916 7.36914 58.2727 7.36914C60.2538 7.36914 61.4835 8.83968 61.4835 10.6603C61.4835 10.9404 61.4152 11.3606 61.3469 11.5707H56.7014ZM56.7014 10.1001H59.639C59.639 9.39988 59.0242 8.9097 58.2044 8.9097C57.4529 8.9097 56.8381 9.46991 56.7014 10.1001Z" fill="#6D9CB7"/>
<path d="M64.2849 8.34921C64.6265 7.71898 65.2414 7.29883 66.0611 7.29883C67.4958 7.29883 68.4522 8.41924 68.4522 9.88977V14.4414H66.6077V10.45C66.6077 9.67969 66.1295 9.18952 65.4463 9.18952C64.7631 9.18952 64.3533 9.6797 64.2849 10.38V14.4414H62.4404V7.43888H64.2849V8.34921Z" fill="#6D9CB7"/>
<path d="M73.6438 9.46962C73.2339 9.18952 72.619 8.97944 72.1408 8.97944C71.6626 8.97944 71.4577 9.18952 71.4577 9.46962C71.4577 9.6797 71.5943 9.81975 71.8676 9.9598L72.824 10.52C73.6438 11.0102 73.917 11.7104 73.917 12.4107C73.917 13.6011 73.0289 14.5115 71.3893 14.5115C70.7745 14.5115 70.0914 14.3714 69.6132 14.1613V12.3407C69.9547 12.6208 70.7062 12.9709 71.2527 12.9709C71.7309 12.9709 71.9359 12.7608 71.9359 12.4807C71.9359 12.2706 71.7992 12.0606 71.4577 11.8505L70.3646 11.2203C69.6815 10.8001 69.4082 10.0998 69.4082 9.39959C69.4082 8.13913 70.3646 7.29883 71.9359 7.29883C72.4141 7.29883 73.0289 7.36885 73.5071 7.5089V9.46962H73.6438Z" fill="#6D9CB7"/>
<path d="M76.0349 4.28809C76.6498 4.28809 77.128 4.77826 77.128 5.40849C77.128 6.03872 76.6498 6.5289 76.0349 6.5289C75.4201 6.5289 74.9419 6.03872 74.9419 5.40849C74.9419 4.77826 75.3518 4.28809 76.0349 4.28809ZM76.923 14.4418H75.0785V7.43923H76.923V14.4418Z" fill="#6D9CB7"/>
<path d="M79.5871 7.43945L81.1583 12.0611L82.7296 7.43945H84.7107L82.1147 14.442H80.1336L77.5376 7.43945H79.5871Z" fill="#6D9CB7"/>
<path d="M56.8384 21.7236H58.7512V25.575L61.1422 21.7236H63.3966L60.9373 25.6451L63.6016 31.2471H61.3472L59.571 27.3257L58.7512 28.4461V31.2471H56.8384V21.7236Z" fill="#6D9CB7"/>
<path d="M67.0172 24.1045C68.9984 24.1045 70.5696 25.7151 70.5696 27.7458C70.5696 29.7766 68.9984 31.3871 67.0172 31.3871C65.0361 31.3871 63.4648 29.7766 63.4648 27.7458C63.5332 25.7151 65.0361 24.1045 67.0172 24.1045ZM67.0172 29.5665C67.9736 29.5665 68.6568 28.7262 68.6568 27.8158C68.6568 26.8355 67.9736 26.0652 67.0172 26.0652C66.0608 26.0652 65.3777 26.8355 65.3777 27.8158C65.3777 28.7262 66.1291 29.5665 67.0172 29.5665Z" fill="#6D9CB7"/>
<path d="M73.5076 25.1549C73.8492 24.5246 74.464 24.1045 75.2838 24.1045C76.7184 24.1045 77.6748 25.2249 77.6748 26.6954V31.2471H75.8303V27.2556C75.8303 26.4854 75.3521 25.9952 74.669 25.9952C73.9858 25.9952 73.5759 26.4854 73.5076 27.1856V31.2471H71.6631V24.2445H73.5076V25.1549Z" fill="#6D9CB7"/>
<path d="M79.5189 31.2474V25.9255H78.4941V24.2449H79.6555V22.7043L81.4317 22.2842V24.2449H82.5931V25.8555H81.4317V31.2474H79.5189Z" fill="#6D9CB7"/>
<path d="M83.5493 24.5246C84.0275 24.3146 84.779 24.1045 85.5305 24.1045C87.375 24.1045 88.3997 25.0148 88.3997 27.0456V31.2471H86.5552V30.7569C86.2136 31.1771 85.6671 31.4572 85.0523 31.4572C83.5493 31.4572 82.7979 30.3368 82.7979 29.2164C82.7979 27.9559 83.686 26.9755 85.0523 26.9755C85.5988 26.9755 86.2136 27.1856 86.5552 27.4657V27.0456C86.5552 26.2053 86.0087 25.8551 85.3255 25.8551C84.7107 25.8551 84.0958 26.0652 83.5493 26.3453V24.5246ZM85.5988 29.9866C86.1453 29.9866 86.5552 29.6365 86.5552 29.1463C86.5552 28.6561 86.1453 28.306 85.5988 28.306C85.0523 28.306 84.6424 28.6561 84.6424 29.1463C84.6424 29.6365 85.0523 29.9866 85.5988 29.9866Z" fill="#6D9CB7"/>
<path d="M89.7666 21.584H91.6111V26.9059L93.4556 24.245H95.6417L93.5922 27.046L95.6417 31.1775H93.4556L92.1576 28.3765L91.5428 29.2168V31.2475H89.6982V21.584H89.7666Z" fill="#6D9CB7"/>
<path d="M96.9393 31.2474V25.9255H95.9146V24.2449H97.0759V22.7043L98.8521 22.2842V24.2449H100.013V25.8555H98.8521V31.2474H96.9393Z" fill="#6D9CB7"/>
<path d="M101.314 21.284V19.0095H102.429C102.538 19.0095 102.647 19.0373 102.756 19.0927C102.866 19.1462 102.958 19.2284 103.031 19.3393C103.105 19.4482 103.143 19.5838 103.143 19.7461C103.143 19.9105 103.104 20.0502 103.028 20.1652C102.951 20.2803 102.855 20.3676 102.74 20.4272C102.626 20.4868 102.511 20.5166 102.396 20.5166H101.604V20.1252H102.257C102.329 20.1252 102.401 20.0933 102.471 20.0296C102.544 19.9659 102.58 19.8714 102.58 19.7461C102.58 19.6146 102.544 19.5242 102.471 19.4749C102.401 19.4256 102.332 19.4009 102.266 19.4009H101.834V21.284H101.314ZM102.686 20.2176L103.227 21.284H102.656L102.136 20.2176H102.686ZM102.169 22.64C101.835 22.64 101.521 22.5763 101.229 22.4489C100.937 22.3215 100.68 22.1448 100.458 21.9188C100.236 21.6928 100.063 21.4309 99.9379 21.133C99.813 20.835 99.7505 20.5155 99.7505 20.1745C99.7505 19.8334 99.813 19.5139 99.9379 19.216C100.063 18.9181 100.236 18.6561 100.458 18.4301C100.68 18.2041 100.937 18.0274 101.229 17.9001C101.521 17.7727 101.835 17.709 102.169 17.709C102.504 17.709 102.817 17.7727 103.109 17.9001C103.402 18.0274 103.659 18.2041 103.88 18.4301C104.102 18.6561 104.275 18.9181 104.4 19.216C104.525 19.5139 104.588 19.8334 104.588 20.1745C104.588 20.5155 104.525 20.835 104.4 21.133C104.275 21.4309 104.102 21.6928 103.88 21.9188C103.659 22.1448 103.402 22.3215 103.109 22.4489C102.817 22.5763 102.504 22.64 102.169 22.64ZM102.169 22.0298C102.504 22.0298 102.808 21.9466 103.082 21.7801C103.358 21.6117 103.578 21.3877 103.741 21.1083C103.904 20.8268 103.986 20.5155 103.986 20.1745C103.986 19.8334 103.904 19.5232 103.741 19.2438C103.578 18.9623 103.358 18.7383 103.082 18.5719C102.808 18.4034 102.504 18.3192 102.169 18.3192C101.835 18.3192 101.529 18.4034 101.253 18.5719C100.977 18.7383 100.757 18.9623 100.594 19.2438C100.431 19.5232 100.349 19.8334 100.349 20.1745C100.349 20.5155 100.431 20.8268 100.594 21.1083C100.757 21.3877 100.977 21.6117 101.253 21.7801C101.529 21.9466 101.835 22.0298 102.169 22.0298Z" fill="#6D9CB7"/>
</g>
<defs>
<clipPath id="clip0_4855_17207">
<rect width="105" height="54" fill="white"/>
</clipPath>
</defs>
</svg>
