<svg width="32" height="32" viewBox="0 0 32 32" fill="none" xmlns="http://www.w3.org/2000/svg">
<rect width="32" height="32" rx="16" fill="#5AAF3C"/>
<path d="M13.9884 25.2311C14.4645 25.2311 14.8409 25.0259 15.1067 24.6262L25.5696 8.55195C25.7689 8.23868 25.8465 8.00103 25.8465 7.75257C25.8465 7.15842 25.4478 6.76953 24.8389 6.76953C24.396 6.76953 24.1524 6.90996 23.8867 7.32046L13.9441 22.7789L8.78461 16.1894C8.50782 15.8113 8.23102 15.66 7.83243 15.66C7.20134 15.66 6.76953 16.0813 6.76953 16.6755C6.76953 16.9239 6.88025 17.2048 7.09062 17.464L12.8369 24.6045C13.1691 25.0259 13.5123 25.2311 13.9884 25.2311Z" fill="#FAFAFA"/>
</svg>
