<svg width="35" height="30" viewBox="0 0 35 30" fill="none" xmlns="http://www.w3.org/2000/svg">
<path d="M15.8594 29.0469C16.3906 29.0469 16.8281 28.875 17.1719 28.5312C17.5156 28.1875 17.6875 27.75 17.6875 27.2188V21.25H18.1406C20.1615 21.25 21.9479 21.4479 23.5 21.8438C25.0521 22.2396 26.4219 22.9219 27.6094 23.8906C28.7969 24.849 29.8438 26.1823 30.75 27.8906C31.0208 28.3906 31.3229 28.7083 31.6562 28.8438C32 28.9792 32.3385 29.0469 32.6719 29.0469C33.0885 29.0469 33.4583 28.8646 33.7812 28.5C34.1146 28.1458 34.2812 27.6302 34.2812 26.9531C34.2812 24.0677 33.9635 21.474 33.3281 19.1719C32.7031 16.8594 31.7344 14.8854 30.4219 13.25C29.1198 11.6146 27.4479 10.3646 25.4062 9.5C23.375 8.63542 20.9531 8.20312 18.1406 8.20312H17.6875V2.29688C17.6875 1.77604 17.5156 1.32812 17.1719 0.953125C16.8281 0.578125 16.3802 0.390625 15.8281 0.390625C15.4427 0.390625 15.099 0.479167 14.7969 0.65625C14.4948 0.822917 14.1354 1.10417 13.7188 1.5L1.39062 13.0312C1.08854 13.3125 0.880208 13.599 0.765625 13.8906C0.651042 14.1823 0.59375 14.4583 0.59375 14.7188C0.59375 14.9688 0.651042 15.2396 0.765625 15.5312C0.880208 15.8229 1.08854 16.1094 1.39062 16.3906L13.7188 28.0312C14.0938 28.3854 14.4479 28.6406 14.7812 28.7969C15.1146 28.9635 15.474 29.0469 15.8594 29.0469ZM14.9688 25.6875C14.875 25.6875 14.7865 25.6406 14.7031 25.5469L3.5625 15.0156C3.5 14.9531 3.45312 14.901 3.42188 14.8594C3.40104 14.8073 3.39062 14.7604 3.39062 14.7188C3.39062 14.625 3.44792 14.526 3.5625 14.4219L14.6875 3.75C14.7292 3.71875 14.7708 3.69271 14.8125 3.67188C14.8542 3.64062 14.901 3.625 14.9531 3.625C15.099 3.625 15.1719 3.69792 15.1719 3.84375V10.0469C15.1719 10.3906 15.349 10.5625 15.7031 10.5625H17.7969C19.9427 10.5625 21.8021 10.8385 23.375 11.3906C24.9479 11.9323 26.276 12.6875 27.3594 13.6562C28.4427 14.6146 29.3177 15.724 29.9844 16.9844C30.651 18.2448 31.1458 19.5938 31.4688 21.0312C31.8021 22.4583 32 23.9062 32.0625 25.375C32.0625 25.4896 32.0208 25.5469 31.9375 25.5469C31.9062 25.5469 31.8802 25.5365 31.8594 25.5156C31.8385 25.4844 31.8177 25.4427 31.7969 25.3906C31.1823 24.0885 30.25 22.9479 29 21.9688C27.75 20.9896 26.1875 20.2344 24.3125 19.7031C22.4479 19.1615 20.276 18.8906 17.7969 18.8906H15.7031C15.349 18.8906 15.1719 19.0625 15.1719 19.4062V25.4531C15.1719 25.6094 15.1042 25.6875 14.9688 25.6875Z" fill="white"/>
</svg>
