<svg width="55" height="41" viewBox="0 0 55 41" fill="none" xmlns="http://www.w3.org/2000/svg">
<rect y="8" width="55" height="33" rx="8" fill="#5AAF3C"/>
<path d="M11.3385 30.098C10.4052 30.098 9.60252 29.8833 8.93052 29.454C8.26786 29.0247 7.76386 28.4273 7.41852 27.662C7.07319 26.8967 6.90052 26.0287 6.90052 25.058C6.90052 24.0873 7.07319 23.2193 7.41852 22.454C7.77319 21.6793 8.28186 21.0773 8.94452 20.648C9.61652 20.2093 10.4145 19.99 11.3385 19.99C12.2532 19.99 13.0419 20.2093 13.7045 20.648C14.3672 21.0773 14.8712 21.6747 15.2165 22.44C15.5619 23.2053 15.7345 24.0827 15.7345 25.072C15.7345 26.052 15.5619 26.92 15.2165 27.676C14.8712 28.432 14.3672 29.0247 13.7045 29.454C13.0419 29.8833 12.2532 30.098 11.3385 30.098ZM11.3245 28.978C11.9685 28.978 12.5285 28.8147 13.0045 28.488C13.4805 28.152 13.8445 27.6853 14.0965 27.088C14.3485 26.4907 14.4745 25.8093 14.4745 25.044C14.4745 24.2787 14.3485 23.5973 14.0965 23C13.8445 22.4027 13.4805 21.936 13.0045 21.6C12.5285 21.264 11.9685 21.096 11.3245 21.096C10.6805 21.096 10.1205 21.2687 9.64452 21.614C9.16852 21.95 8.80452 22.4167 8.55252 23.014C8.30052 23.6113 8.17452 24.288 8.17452 25.044C8.17452 25.8093 8.30052 26.4907 8.55252 27.088C8.80452 27.676 9.16852 28.138 9.64452 28.474C10.1205 28.81 10.6805 28.978 11.3245 28.978ZM17.5314 22.622H18.7354V23.952H18.8474C19.0341 23.5227 19.3374 23.1633 19.7574 22.874C20.1774 22.5753 20.6908 22.426 21.2974 22.426C21.9228 22.426 22.4454 22.5753 22.8654 22.874C23.2854 23.1633 23.5934 23.5507 23.7894 24.036C23.9948 24.512 24.0974 25.03 24.0974 25.59V30H22.8934V25.744C22.8934 25.016 22.7021 24.4607 22.3194 24.078C21.9461 23.6953 21.4561 23.504 20.8494 23.504C20.2054 23.504 19.6921 23.714 19.3094 24.134C18.9268 24.5447 18.7354 25.0813 18.7354 25.744V30H17.5314V22.622ZM28.0347 30.056C27.4841 30.056 27.0734 29.9673 26.8027 29.79C26.5321 29.6127 26.3594 29.384 26.2847 29.104C26.2194 28.8147 26.1867 28.4413 26.1867 27.984L26.2007 19.5H27.4047V27.802C27.4047 28.1567 27.4187 28.4227 27.4467 28.6C27.4841 28.768 27.5727 28.9033 27.7127 29.006C27.8621 29.1087 28.0954 29.16 28.4127 29.16C28.6087 29.16 28.7814 29.146 28.9307 29.118V29.986C28.6787 30.0327 28.3801 30.056 28.0347 30.056ZM30.6451 22.622H31.8491V30H30.6451V22.622ZM31.2331 21.25C31.0091 21.25 30.8224 21.1753 30.6731 21.026C30.5237 20.8673 30.4491 20.6807 30.4491 20.466C30.4491 20.2513 30.5237 20.0693 30.6731 19.92C30.8224 19.7613 31.0091 19.682 31.2331 19.682C31.4571 19.682 31.6437 19.7613 31.7931 19.92C31.9517 20.0693 32.0311 20.2513 32.0311 20.466C32.0311 20.6807 31.9517 20.8673 31.7931 21.026C31.6437 21.1753 31.4571 21.25 31.2331 21.25ZM34.0881 22.622H35.2921V23.952H35.4041C35.5908 23.5227 35.8941 23.1633 36.3141 22.874C36.7341 22.5753 37.2474 22.426 37.8541 22.426C38.4794 22.426 39.0021 22.5753 39.4221 22.874C39.8421 23.1633 40.1501 23.5507 40.3461 24.036C40.5514 24.512 40.6541 25.03 40.6541 25.59V30H39.4501V25.744C39.4501 25.016 39.2588 24.4607 38.8761 24.078C38.5028 23.6953 38.0128 23.504 37.4061 23.504C36.7621 23.504 36.2488 23.714 35.8661 24.134C35.4834 24.5447 35.2921 25.0813 35.2921 25.744V30H34.0881V22.622ZM45.8094 30.098C45.0534 30.098 44.414 29.916 43.8914 29.552C43.378 29.188 42.9954 28.712 42.7434 28.124C42.4914 27.536 42.3654 26.9153 42.3654 26.262C42.3654 25.5993 42.4914 24.9787 42.7434 24.4C42.9954 23.812 43.3827 23.336 43.9054 22.972C44.428 22.608 45.0674 22.426 45.8234 22.426C46.8127 22.426 47.6014 22.7573 48.1894 23.42C48.7867 24.0827 49.0854 25.0347 49.0854 26.276V26.612H43.5694V26.71C43.5694 27.1207 43.6627 27.508 43.8494 27.872C44.036 28.236 44.2974 28.53 44.6334 28.754C44.9694 28.978 45.3567 29.09 45.7954 29.09C46.2714 29.09 46.682 28.9687 47.0274 28.726C47.3727 28.4833 47.6294 28.1567 47.7974 27.746H48.9874C48.7914 28.418 48.4227 28.978 47.8814 29.426C47.3494 29.874 46.6587 30.098 45.8094 30.098ZM47.8954 25.758C47.858 24.918 47.6527 24.3113 47.2794 23.938C46.906 23.5647 46.416 23.378 45.8094 23.378C45.1467 23.378 44.6194 23.5973 44.2274 24.036C43.8354 24.4747 43.6254 25.0487 43.5974 25.758H47.8954Z" fill="white"/>
<path d="M26.1543 2.94208C27.3553 1.43569 29.6447 1.43569 30.8457 2.94208L37.1744 10.8798C38.7411 12.8449 37.3419 15.75 34.8287 15.75H22.1713C19.6581 15.75 18.2589 12.8449 19.8256 10.8798L26.1543 2.94208Z" fill="#5AAF3C"/>
</svg>
