<svg width="22" height="18" viewBox="0 0 22 18" fill="none" xmlns="http://www.w3.org/2000/svg">
<path d="M1.65 17.6C1.21 17.6 0.825 17.435 0.495 17.105C0.165 16.775 0 16.39 0 15.95V1.65C0 1.21 0.165 0.825 0.495 0.495C0.825 0.165 1.21 0 1.65 0H15.95C16.39 0 16.775 0.165 17.105 0.495C17.435 0.825 17.6 1.21 17.6 1.65V7.5625L22 3.1625V14.41L17.6 10.01V15.95C17.6 16.39 17.435 16.775 17.105 17.105C16.775 17.435 16.39 17.6 15.95 17.6H1.65ZM1.65 15.95H15.95V1.65H1.65V15.95ZM4.18 13.255H13.42V12.6775C13.42 11.5225 12.8792 10.78 11.7975 10.45C10.7158 10.12 9.71667 9.955 8.8 9.955C7.88333 9.955 6.88417 10.12 5.8025 10.45C4.72083 10.78 4.18 11.5225 4.18 12.6775V13.255ZM8.8 8.4425C9.44167 8.4425 9.96875 8.23625 10.3813 7.82375C10.7937 7.41125 11 6.88417 11 6.2425C11 5.60083 10.7937 5.07375 10.3813 4.66125C9.96875 4.24875 9.44167 4.0425 8.8 4.0425C8.15833 4.0425 7.63125 4.24875 7.21875 4.66125C6.80625 5.07375 6.6 5.60083 6.6 6.2425C6.6 6.88417 6.80625 7.41125 7.21875 7.82375C7.63125 8.23625 8.15833 8.4425 8.8 8.4425Z"/>
</svg>
