<svg width="26" height="18" viewBox="0 0 26 18" fill="none" xmlns="http://www.w3.org/2000/svg">
<path d="M1.65 17.6C1.21 17.6 0.825 17.435 0.495 17.105C0.165 16.775 0 16.39 0 15.95V1.65C0 1.21 0.165 0.825 0.495 0.495C0.825 0.165 1.21 0 1.65 0H19.95C20.39 0 20.775 0.165 21.105 0.495C21.435 0.825 21.6 1.21 21.6 1.65V7.5625L26 3.1625V14.41L21.6 10.01V15.95C21.6 16.39 21.435 16.775 21.105 17.105C20.775 17.435 20.39 17.6 19.95 17.6H1.65ZM1.65 15.95H19.95V1.65H1.65V15.95ZM6.18 13.255H15.42V12.6775C15.42 11.5225 14.8792 10.78 13.7975 10.45C12.7158 10.12 11.7167 9.955 10.8 9.955C9.88333 9.955 8.88417 10.12 7.8025 10.45C6.72083 10.78 6.18 11.5225 6.18 12.6775V13.255ZM10.8 8.4425C11.4417 8.4425 11.9688 8.23625 12.3813 7.82375C12.7938 7.41125 13 6.88417 13 6.2425C13 5.60083 12.7938 5.07375 12.3813 4.66125C11.9688 4.24875 11.4417 4.0425 10.8 4.0425C10.1583 4.0425 9.63125 4.24875 9.21875 4.66125C8.80625 5.07375 8.6 5.60083 8.6 6.2425C8.6 6.88417 8.80625 7.41125 9.21875 7.82375C9.63125 8.23625 10.1583 8.4425 10.8 8.4425Z" fill="#CBCFD5"/>
</svg>
