<svg width="14" height="8" viewBox="0 0 14 8" fill="none" xmlns="http://www.w3.org/2000/svg">
<path d="M7 8C6.73107 8 6.5017 7.89774 6.29605 7.68535L0.261018 1.54966C0.0870066 1.38446 8.1516e-08 1.16421 8.45177e-08 0.912487C9.0615e-08 0.40118 0.395481 -1.62232e-07 0.917515 -1.56007e-07C1.17062 -1.52989e-07 1.4 0.102261 1.57401 0.275319L7 5.80531L12.426 0.27532C12.6079 0.102262 12.8373 -1.38652e-08 13.0904 -1.08469e-08C13.6045 -4.71606e-09 14 0.40118 14 0.912488C14 1.16421 13.913 1.38446 13.739 1.54966L7.70396 7.68535C7.49831 7.89774 7.26893 7.99213 7 8Z" fill="#9BA6B5"/>
</svg>
