<svg width="141" height="17" viewBox="0 0 141 17" fill="none" xmlns="http://www.w3.org/2000/svg">
<path d="M6.85938 15.8594H17.3203C18.0026 15.8594 18.5208 15.6875 18.875 15.3438C19.2292 15 19.4062 14.487 19.4062 13.8047V13.3047L15.7812 9.88281C15.6302 9.74219 15.4635 9.63802 15.2812 9.57031C15.099 9.4974 14.9141 9.46094 14.7266 9.46094C14.5286 9.46094 14.3438 9.49479 14.1719 9.5625C14 9.625 13.8333 9.72917 13.6719 9.875L10.5156 12.6719L9.25781 11.5391C9.10677 11.3984 8.95052 11.2969 8.78906 11.2344C8.63281 11.1719 8.47135 11.1406 8.30469 11.1406C8.15365 11.1406 8.0026 11.1745 7.85156 11.2422C7.70573 11.3047 7.55729 11.3984 7.40625 11.5234L4.77344 13.8125C4.77344 14.4896 4.95052 15 5.30469 15.3438C5.65885 15.6875 6.17708 15.8594 6.85938 15.8594ZM9.95312 10.0547C10.4062 10.0547 10.7943 9.89062 11.1172 9.5625C11.4401 9.23438 11.6016 8.84115 11.6016 8.38281C11.6016 8.08594 11.526 7.8125 11.375 7.5625C11.2292 7.30729 11.0312 7.10417 10.7812 6.95312C10.5312 6.80208 10.2552 6.72656 9.95312 6.72656C9.49479 6.72656 9.10417 6.89062 8.78125 7.21875C8.45833 7.54688 8.29688 7.9349 8.29688 8.38281C8.29688 8.84115 8.45833 9.23438 8.78125 9.5625C9.10417 9.89062 9.49479 10.0547 9.95312 10.0547ZM2.97656 12.6562H4.91406V11.3984H2.99219C2.60156 11.3984 2.30208 11.2969 2.09375 11.0938C1.88542 10.8854 1.78125 10.5781 1.78125 10.1719V2.9375C1.78125 2.53125 1.88542 2.22396 2.09375 2.01562C2.30208 1.80729 2.60156 1.70312 2.99219 1.70312H13.5391C13.9245 1.70312 14.224 1.80729 14.4375 2.01562C14.651 2.22396 14.7578 2.53125 14.7578 2.9375V4.57031H16.0156V2.86719C16.0156 2.0651 15.8099 1.46094 15.3984 1.05469C14.987 0.648438 14.375 0.445312 13.5625 0.445312H2.97656C2.15885 0.445312 1.54427 0.648438 1.13281 1.05469C0.726562 1.45573 0.523438 2.0599 0.523438 2.86719V10.2344C0.523438 11.0417 0.726562 11.6484 1.13281 12.0547C1.54427 12.4557 2.15885 12.6562 2.97656 12.6562ZM6.83594 16.2734H17.5078C18.3203 16.2734 18.9323 16.0703 19.3438 15.6641C19.7552 15.263 19.9609 14.6589 19.9609 13.8516V6.48438C19.9609 5.68229 19.7552 5.07812 19.3438 4.67188C18.9323 4.26562 18.3203 4.0625 17.5078 4.0625H6.83594C6.01823 4.0625 5.40365 4.26562 4.99219 4.67188C4.58594 5.07292 4.38281 5.67708 4.38281 6.48438V13.8516C4.38281 14.6589 4.58594 15.263 4.99219 15.6641C5.40365 16.0703 6.01823 16.2734 6.83594 16.2734ZM6.85156 15.0156C6.46094 15.0156 6.16146 14.9115 5.95312 14.7031C5.74479 14.5 5.64062 14.1953 5.64062 13.7891V6.55469C5.64062 6.14844 5.74479 5.84115 5.95312 5.63281C6.16146 5.42448 6.46094 5.32031 6.85156 5.32031H17.4844C17.8698 5.32031 18.1693 5.42448 18.3828 5.63281C18.5964 5.84115 18.7031 6.14844 18.7031 6.55469V13.7891C18.7031 14.1953 18.5964 14.5 18.3828 14.7031C18.1693 14.9115 17.8698 15.0156 17.4844 15.0156H6.85156ZM27.6531 2.8H32.1331C32.8798 2.8 33.4878 2.944 33.9571 3.232C34.4371 3.52 34.7785 3.88267 34.9811 4.32C35.1838 4.74667 35.2851 5.18933 35.2851 5.648C35.2851 6.128 35.1838 6.544 34.9811 6.896C34.7785 7.248 34.5331 7.52 34.2451 7.712C33.9571 7.904 33.6851 8.02667 33.4291 8.08V8.176C33.7065 8.19733 34.0265 8.29867 34.3891 8.48C34.7625 8.65067 35.0878 8.93333 35.3651 9.328C35.6531 9.712 35.7971 10.2027 35.7971 10.8C35.7971 11.3333 35.6745 11.8453 35.4291 12.336C35.1945 12.816 34.8211 13.216 34.3091 13.536C33.7971 13.8453 33.1571 14 32.3891 14H27.6531V2.8ZM31.7331 7.712C32.3411 7.712 32.8638 7.55733 33.3011 7.248C33.7385 6.928 33.9571 6.43733 33.9571 5.776C33.9571 5.14667 33.7438 4.688 33.3171 4.4C32.9011 4.112 32.3731 3.968 31.7331 3.968H28.9971V7.712H31.7331ZM32.0371 12.832C32.7305 12.832 33.3065 12.672 33.7651 12.352C34.2238 12.032 34.4531 11.5093 34.4531 10.784C34.4531 10.0693 34.2238 9.56267 33.7651 9.264C33.3065 8.95467 32.7305 8.8 32.0371 8.8H28.9971V12.832H32.0371ZM37.7495 5.568H39.1255V14H37.7495V5.568ZM38.4215 4C38.1655 4 37.9522 3.91467 37.7815 3.744C37.6108 3.56267 37.5255 3.34933 37.5255 3.104C37.5255 2.85867 37.6108 2.65067 37.7815 2.48C37.9522 2.29867 38.1655 2.208 38.4215 2.208C38.6775 2.208 38.8908 2.29867 39.0615 2.48C39.2428 2.65067 39.3335 2.85867 39.3335 3.104C39.3335 3.34933 39.2428 3.56267 39.0615 3.744C38.8908 3.91467 38.6775 4 38.4215 4ZM43.8444 14.064C43.215 14.064 42.7457 13.9627 42.4364 13.76C42.127 13.5573 41.9297 13.296 41.8444 12.976C41.7697 12.6453 41.7324 12.2187 41.7324 11.696L41.7484 2H43.1244V11.488C43.1244 11.8933 43.1404 12.1973 43.1724 12.4C43.215 12.592 43.3164 12.7467 43.4764 12.864C43.647 12.9813 43.9137 13.04 44.2764 13.04C44.5004 13.04 44.6977 13.024 44.8684 12.992V13.984C44.5804 14.0373 44.239 14.064 43.8444 14.064ZM49.8356 14.112C49.089 14.112 48.449 13.92 47.9156 13.536C47.393 13.152 46.993 12.6293 46.7156 11.968C46.4383 11.3067 46.2996 10.56 46.2996 9.728C46.2996 8.88533 46.4383 8.13333 46.7156 7.472C46.993 6.81067 47.3983 6.29333 47.9316 5.92C48.465 5.536 49.1103 5.344 49.8676 5.344C50.6143 5.344 51.217 5.52533 51.6756 5.888C52.145 6.24 52.4916 6.656 52.7156 7.136H52.8436V2H54.2196V14H52.8436V12.272H52.7156C52.4596 12.784 52.097 13.2213 51.6276 13.584C51.169 13.936 50.5716 14.112 49.8356 14.112ZM50.2516 12.928C51.0836 12.928 51.7183 12.624 52.1556 12.016C52.593 11.3973 52.8116 10.6347 52.8116 9.728C52.8116 8.82133 52.593 8.064 52.1556 7.456C51.7183 6.848 51.0836 6.544 50.2516 6.544C49.409 6.544 48.7743 6.848 48.3476 7.456C47.921 8.064 47.7076 8.82133 47.7076 9.728C47.7076 10.6453 47.921 11.408 48.3476 12.016C48.785 12.624 49.4196 12.928 50.2516 12.928ZM60.3094 2.048H61.6854V7.088H61.8134C62.0267 6.59733 62.3734 6.18667 62.8534 5.856C63.3334 5.51467 63.92 5.344 64.6134 5.344C65.328 5.344 65.9254 5.51467 66.4054 5.856C66.8854 6.18667 67.2374 6.62933 67.4614 7.184C67.696 7.728 67.8134 8.32 67.8134 8.96V14H66.4374V9.136C66.4374 8.304 66.2187 7.66933 65.7814 7.232C65.3547 6.79467 64.784 6.576 64.0694 6.576C63.3867 6.576 62.816 6.80533 62.3574 7.264C61.9094 7.72267 61.6854 8.34667 61.6854 9.136V14H60.3094V2.048ZM73.7211 14.112C72.8678 14.112 72.1425 13.9093 71.5451 13.504C70.9585 13.088 70.5158 12.5493 70.2171 11.888C69.9185 11.216 69.7691 10.496 69.7691 9.728C69.7691 8.96 69.9185 8.24533 70.2171 7.584C70.5158 6.912 70.9585 6.37333 71.5451 5.968C72.1425 5.552 72.8678 5.344 73.7211 5.344C74.5745 5.344 75.2945 5.552 75.8811 5.968C76.4785 6.37333 76.9211 6.912 77.2091 7.584C77.5078 8.256 77.6571 8.97067 77.6571 9.728C77.6571 10.4853 77.5078 11.2 77.2091 11.872C76.9105 12.544 76.4625 13.088 75.8651 13.504C75.2785 13.9093 74.5638 14.112 73.7211 14.112ZM73.7211 12.928C74.2438 12.928 74.6971 12.784 75.0811 12.496C75.4758 12.208 75.7745 11.824 75.9771 11.344C76.1798 10.8533 76.2811 10.3093 76.2811 9.712C76.2811 8.79467 76.0518 8.032 75.5931 7.424C75.1345 6.816 74.5105 6.512 73.7211 6.512C73.1878 6.512 72.7238 6.656 72.3291 6.944C71.9451 7.232 71.6518 7.62133 71.4491 8.112C71.2465 8.592 71.1451 9.12533 71.1451 9.712C71.1451 10.6293 71.3745 11.3973 71.8331 12.016C72.2918 12.624 72.9211 12.928 73.7211 12.928ZM83.2688 14.112C82.3941 14.112 81.6528 13.904 81.0448 13.488C80.4474 13.072 80.0048 12.5333 79.7168 11.872C79.4288 11.2 79.2848 10.4853 79.2848 9.728C79.2848 8.97067 79.4288 8.26133 79.7168 7.6C80.0048 6.928 80.4474 6.384 81.0448 5.968C81.6528 5.552 82.3941 5.344 83.2688 5.344C84.3568 5.344 85.2101 5.65867 85.8288 6.288C86.4581 6.91733 86.8368 7.69067 86.9648 8.608H85.6208C85.5248 7.98933 85.2794 7.488 84.8848 7.104C84.4901 6.70933 83.9568 6.512 83.2848 6.512C82.4314 6.512 81.7808 6.82133 81.3328 7.44C80.8954 8.048 80.6768 8.81067 80.6768 9.728C80.6768 10.6453 80.8954 11.4133 81.3328 12.032C81.7808 12.64 82.4314 12.944 83.2848 12.944C83.9568 12.944 84.4901 12.752 84.8848 12.368C85.2794 11.984 85.5248 11.4773 85.6208 10.848H86.9648C86.8368 11.7653 86.4581 12.5387 85.8288 13.168C85.2101 13.7973 84.3568 14.112 83.2688 14.112ZM88.8875 2.048H90.2635V7.088H90.3915C90.6048 6.59733 90.9515 6.18667 91.4315 5.856C91.9115 5.51467 92.4982 5.344 93.1915 5.344C93.9062 5.344 94.5035 5.51467 94.9835 5.856C95.4635 6.18667 95.8155 6.62933 96.0395 7.184C96.2742 7.728 96.3915 8.32 96.3915 8.96V14H95.0155V9.136C95.0155 8.304 94.7968 7.66933 94.3595 7.232C93.9328 6.79467 93.3622 6.576 92.6475 6.576C91.9648 6.576 91.3942 6.80533 90.9355 7.264C90.4875 7.72267 90.2635 8.34667 90.2635 9.136V14H88.8875V2.048ZM100.891 14.064C100.262 14.064 99.7926 13.9627 99.4833 13.76C99.1739 13.5573 98.9766 13.296 98.8913 12.976C98.8166 12.6453 98.7793 12.2187 98.7793 11.696L98.7953 2H100.171V11.488C100.171 11.8933 100.187 12.1973 100.219 12.4C100.262 12.592 100.363 12.7467 100.523 12.864C100.694 12.9813 100.961 13.04 101.323 13.04C101.547 13.04 101.745 13.024 101.915 12.992V13.984C101.627 14.0373 101.286 14.064 100.891 14.064ZM106.851 14.112C106.104 14.112 105.464 13.92 104.931 13.536C104.408 13.152 104.008 12.6293 103.731 11.968C103.453 11.3067 103.315 10.56 103.315 9.728C103.315 8.896 103.453 8.14933 103.731 7.488C104.019 6.816 104.429 6.29333 104.963 5.92C105.507 5.536 106.152 5.344 106.899 5.344C107.645 5.344 108.248 5.52 108.707 5.872C109.165 6.224 109.512 6.64533 109.747 7.136H109.859V5.568H111.251V14H109.859V12.272H109.747C109.491 12.7733 109.128 13.2053 108.659 13.568C108.189 13.9307 107.587 14.112 106.851 14.112ZM107.283 12.928C108.104 12.928 108.733 12.624 109.171 12.016C109.608 11.3973 109.827 10.6347 109.827 9.728C109.827 8.82133 109.608 8.064 109.171 7.456C108.733 6.83733 108.104 6.528 107.283 6.528C106.44 6.528 105.8 6.832 105.363 7.44C104.936 8.048 104.723 8.80533 104.723 9.712C104.723 10.6293 104.936 11.3973 105.363 12.016C105.8 12.624 106.44 12.928 107.283 12.928ZM116.758 14.112C116.011 14.112 115.371 13.92 114.838 13.536C114.315 13.152 113.915 12.6293 113.638 11.968C113.36 11.3067 113.222 10.56 113.222 9.728C113.222 8.88533 113.36 8.13333 113.638 7.472C113.915 6.81067 114.32 6.29333 114.854 5.92C115.387 5.536 116.032 5.344 116.79 5.344C117.536 5.344 118.139 5.52533 118.598 5.888C119.067 6.24 119.414 6.656 119.638 7.136H119.766V2H121.142V14H119.766V12.272H119.638C119.382 12.784 119.019 13.2213 118.55 13.584C118.091 13.936 117.494 14.112 116.758 14.112ZM117.174 12.928C118.006 12.928 118.64 12.624 119.078 12.016C119.515 11.3973 119.734 10.6347 119.734 9.728C119.734 8.82133 119.515 8.064 119.078 7.456C118.64 6.848 118.006 6.544 117.174 6.544C116.331 6.544 115.696 6.848 115.27 7.456C114.843 8.064 114.63 8.82133 114.63 9.728C114.63 10.6453 114.843 11.408 115.27 12.016C115.707 12.624 116.342 12.928 117.174 12.928ZM127.096 14.112C126.232 14.112 125.501 13.904 124.904 13.488C124.317 13.072 123.88 12.528 123.592 11.856C123.304 11.184 123.16 10.4747 123.16 9.728C123.16 8.97067 123.304 8.26133 123.592 7.6C123.88 6.928 124.322 6.384 124.92 5.968C125.517 5.552 126.248 5.344 127.112 5.344C128.242 5.344 129.144 5.72267 129.816 6.48C130.498 7.23733 130.84 8.32533 130.84 9.744V10.128H124.536V10.24C124.536 10.7093 124.642 11.152 124.856 11.568C125.069 11.984 125.368 12.32 125.752 12.576C126.136 12.832 126.578 12.96 127.08 12.96C127.624 12.96 128.093 12.8213 128.488 12.544C128.882 12.2667 129.176 11.8933 129.368 11.424H130.728C130.504 12.192 130.082 12.832 129.464 13.344C128.856 13.856 128.066 14.112 127.096 14.112ZM129.48 9.152C129.437 8.192 129.202 7.49867 128.776 7.072C128.349 6.64533 127.789 6.432 127.096 6.432C126.338 6.432 125.736 6.68267 125.288 7.184C124.84 7.68533 124.6 8.34133 124.568 9.152H129.48ZM132.872 5.568H134.248V7.088H134.376C134.589 6.59733 134.936 6.18667 135.416 5.856C135.896 5.51467 136.483 5.344 137.176 5.344C137.891 5.344 138.488 5.51467 138.968 5.856C139.448 6.18667 139.8 6.62933 140.024 7.184C140.259 7.728 140.376 8.32 140.376 8.96V14H139V9.136C139 8.304 138.781 7.66933 138.344 7.232C137.917 6.79467 137.357 6.576 136.664 6.576C135.928 6.576 135.341 6.816 134.904 7.296C134.467 7.76533 134.248 8.37867 134.248 9.136V14H132.872V5.568Z"/>
</svg>
