<svg width="26" height="26" viewBox="0 0 26 26" fill="none" xmlns="http://www.w3.org/2000/svg">
<path d="M21 20.5H17C16.6022 20.5 16.2206 20.342 15.9393 20.0607C15.658 19.7793 15.5 19.3978 15.5 19V16.5C15.5 16.1022 15.658 15.7206 15.9393 15.4393C16.2206 15.158 16.6022 15 17 15H21C21.3978 15 21.7793 15.158 22.0607 15.4393C22.342 15.7206 22.5 16.1022 22.5 16.5V19C22.5 19.3978 22.342 19.7793 22.0607 20.0607C21.7793 20.342 21.3978 20.5 21 20.5ZM17 16C16.8674 16 16.7402 16.0527 16.6464 16.1464C16.5527 16.2402 16.5 16.3674 16.5 16.5V19C16.5 19.1326 16.5527 19.2598 16.6464 19.3535C16.7402 19.4473 16.8674 19.5 17 19.5H21C21.1326 19.5 21.2598 19.4473 21.3535 19.3535C21.4473 19.2598 21.5 19.1326 21.5 19V16.5C21.5 16.3674 21.4473 16.2402 21.3535 16.1464C21.2598 16.0527 21.1326 16 21 16H17Z" fill="#FAFAFA"/>
<path d="M21 16H17C16.8674 16 16.7402 15.9473 16.6464 15.8535C16.5527 15.7598 16.5 15.6326 16.5 15.5V15C16.5 14.3369 16.7634 13.7011 17.2322 13.2322C17.7011 12.7634 18.3369 12.5 19 12.5C19.663 12.5 20.2989 12.7634 20.7677 13.2322C21.2366 13.7011 21.5 14.3369 21.5 15V15.5C21.5 15.6326 21.4473 15.7598 21.3535 15.8535C21.2598 15.9473 21.1326 16 21 16ZM17.5 15H20.5C20.5 14.6022 20.3419 14.2206 20.0606 13.9393C19.7793 13.658 19.3978 13.5 19 13.5C18.6021 13.5 18.2206 13.658 17.9393 13.9393C17.658 14.2206 17.5 14.6022 17.5 15ZM19 18.5C18.8674 18.5 18.7402 18.4473 18.6464 18.3535C18.5527 18.2598 18.5 18.1326 18.5 18V17.5C18.5 17.3674 18.5527 17.2402 18.6464 17.1464C18.7402 17.0527 18.8674 17 19 17C19.1326 17 19.2598 17.0527 19.3535 17.1464C19.4473 17.2402 19.5 17.3674 19.5 17.5V18C19.5 18.1326 19.4473 18.2598 19.3535 18.3535C19.2598 18.4473 19.1326 18.5 19 18.5ZM10.75 6.99999C5.40999 6.99999 0 5.79999 0 3.5C0 1.2 5.40999 0 10.75 0C16.09 0 21.5 1.2 21.5 3.5C21.5 5.79999 16.09 6.99999 10.75 6.99999ZM10.75 0.999999C4.79999 0.999999 0.999999 2.5 0.999999 3.5C0.999999 4.49999 4.79999 5.99999 10.75 5.99999C16.7 5.99999 20.5 4.49999 20.5 3.5C20.5 2.5 16.7 0.999999 10.75 0.999999Z" fill="#FAFAFA"/>
<path d="M19 25.9999C18.935 26.0007 18.8704 25.9888 18.81 25.9649C17.2306 25.3183 15.8234 24.3131 14.6996 23.0287C13.5758 21.7444 12.7662 20.2162 12.335 18.565C12.1504 17.8599 12.0382 17.1378 12 16.41C12 16.23 12 16.065 12 15.91V11.1C11.9966 10.9857 12.0325 10.8738 12.1017 10.7829C12.1708 10.6919 12.269 10.6273 12.38 10.6L18.88 8.99997C18.9588 8.98048 19.0411 8.98048 19.12 8.99997L25.62 10.6C25.7309 10.6273 25.8291 10.6919 25.8982 10.7829C25.9674 10.8738 26.0033 10.9857 26 11.1V15.9C25.9953 18.0642 25.3447 20.1778 24.1315 21.9701C22.9182 23.7623 21.1976 25.1516 19.19 25.9599C19.1298 25.9856 19.0653 25.9992 19 25.9999ZM13 11.5V15.9C13 16.055 13 16.21 13 16.365C13.0306 17.0234 13.1294 17.6769 13.295 18.315C13.4503 18.9204 13.6629 19.5098 13.93 20.075C14.584 21.4485 15.5414 22.6555 16.73 23.6049C17.4246 24.1533 18.1877 24.6088 19 24.9599C20.7765 24.202 22.2918 22.9398 23.3582 21.3295C24.4247 19.7191 24.9955 17.8314 25 15.9V11.5L19 9.99996L13 11.5Z" fill="#FAFAFA"/>
<path d="M10.75 19C5.40999 19 0 17.8 0 15.5V9.5C0 9.36739 0.0526784 9.24021 0.146447 9.14645C0.240215 9.05268 0.367391 9 0.499999 9C0.632607 9 0.759784 9.05268 0.853552 9.14645C0.94732 9.24021 0.999999 9.36739 0.999999 9.5C0.999999 10.5 4.79999 12 10.75 12C11.3367 12 11.9117 11.985 12.475 11.955C12.5429 11.9519 12.6108 11.9628 12.6744 11.9868C12.738 12.0109 12.7961 12.0477 12.845 12.095C12.8937 12.1415 12.9326 12.1973 12.9592 12.2592C12.9859 12.321 12.9997 12.3876 13 12.455V15.9C13 16.055 13 16.21 13 16.365C13.0306 17.0234 13.1294 17.6769 13.295 18.315C13.3135 18.3866 13.316 18.4613 13.3021 18.534C13.2883 18.6066 13.2585 18.6753 13.215 18.735C13.1715 18.7947 13.1153 18.8441 13.0505 18.8796C12.9856 18.915 12.9138 18.9357 12.84 18.94C12.175 19 11.465 19 10.75 19ZM0.999999 11.07V15.5C0.999999 16.5 4.79999 18 10.75 18C11.25 18 11.75 18 12.2 17.97C12.0958 17.4555 12.029 16.9341 12 16.41C12 16.23 12 16.065 12 15.91V13C11.59 13 11.17 13 10.75 13C6.79499 13 2.805 12.34 0.999999 11.07Z" fill="#FAFAFA"/>
<path d="M10.75 13C5.40999 13 0 11.8 0 9.49999V3.5C0 3.36739 0.0526784 3.24021 0.146447 3.14645C0.240215 3.05268 0.367391 3 0.499999 3C0.632607 3 0.759784 3.05268 0.853552 3.14645C0.94732 3.24021 0.999999 3.36739 0.999999 3.5C0.999999 4.5 4.79999 6 10.75 6C16.7 6 20.5 4.5 20.5 3.5C20.5 3.36739 20.5527 3.24021 20.6464 3.14645C20.7402 3.05268 20.8674 3 21 3C21.1326 3 21.2598 3.05268 21.3535 3.14645C21.4473 3.24021 21.5 3.36739 21.5 3.5V9.49999C21.4996 9.74314 21.4377 9.98224 21.32 10.195C21.2676 10.2929 21.1842 10.3707 21.0828 10.4159C20.9814 10.4612 20.8678 10.4714 20.76 10.445L19 9.99999L13 11.5V12.465C13.0001 12.5934 12.9509 12.7169 12.8625 12.81C12.7741 12.9031 12.6532 12.9586 12.525 12.965C11.945 13 11.35 13 10.75 13ZM0.999999 5.07V9.49999C0.999999 10.5 4.79999 12 10.75 12C11.17 12 11.59 12 12 11.975V11.1C11.9967 10.9858 12.0326 10.8739 12.1017 10.7829C12.1708 10.6919 12.269 10.6274 12.38 10.6L18.88 8.99999C18.9588 8.98051 19.0412 8.98051 19.12 8.99999L20.5 9.34999V5.07C18.695 6.34 14.705 6.99999 10.75 6.99999C6.79499 6.99999 2.805 6.34 0.999999 5.07Z" fill="#FAFAFA"/>
<path d="M21 10.5C20.9601 10.5048 20.9198 10.5048 20.88 10.5L20.76 10.47C20.6863 10.4516 20.6178 10.4166 20.5597 10.3677C20.5015 10.3189 20.4553 10.2574 20.4244 10.188C20.3936 10.1186 20.379 10.0431 20.3816 9.96721C20.3843 9.89131 20.4043 9.81703 20.44 9.74999C20.4814 9.67331 20.5021 9.58713 20.5 9.49999C20.5 9.36738 20.5527 9.24021 20.6464 9.14644C20.7402 9.05267 20.8674 8.99999 21 8.99999C21.1326 8.99999 21.2598 9.05267 21.3535 9.14644C21.4473 9.24021 21.5 9.36738 21.5 9.49999V9.99999C21.5 10.1326 21.4473 10.2598 21.3535 10.3535C21.2598 10.4473 21.1326 10.5 21 10.5ZM10.75 25C5.40999 25 0 23.8 0 21.5V15.5C0 15.3674 0.0526784 15.2402 0.146447 15.1464C0.240215 15.0527 0.367391 15 0.499999 15C0.632607 15 0.759784 15.0527 0.853552 15.1464C0.94732 15.2402 0.999999 15.3674 0.999999 15.5C0.999999 16.5 4.79999 18 10.75 18C11.445 18 12.135 18 12.79 17.94C12.9035 17.9364 13.0149 17.9716 13.1058 18.0397C13.1967 18.1079 13.2616 18.205 13.29 18.315C13.4453 18.9205 13.6579 19.5098 13.925 20.075C14.579 21.4485 15.5364 22.6555 16.725 23.605C16.798 23.6636 16.8532 23.7415 16.8841 23.8299C16.9151 23.9183 16.9206 24.0136 16.9 24.105C16.877 24.1974 16.828 24.2813 16.7589 24.3468C16.6898 24.4124 16.6035 24.4568 16.51 24.475C14.6108 24.8311 12.6822 25.0069 10.75 25ZM0.999999 17.07V21.5C0.999999 22.5 4.79999 24 10.75 24C12.2774 24.0052 13.8032 23.8982 15.315 23.68C14.3717 22.7653 13.601 21.6881 13.04 20.5C12.8034 20.0005 12.6045 19.4841 12.445 18.955C11.895 18.955 11.325 18.995 10.75 18.995C6.79499 19 2.805 18.34 0.999999 17.07ZM13.5 4H7.99999C7.86738 4 7.7402 3.94732 7.64644 3.85355C7.55267 3.75978 7.49999 3.63261 7.49999 3.5C7.49999 3.36739 7.55267 3.24021 7.64644 3.14645C7.7402 3.05268 7.86738 3 7.99999 3H13.5C13.6326 3 13.7598 3.05268 13.8535 3.14645C13.9473 3.24021 14 3.36739 14 3.5C14 3.63261 13.9473 3.75978 13.8535 3.85355C13.7598 3.94732 13.6326 4 13.5 4Z" fill="#FAFAFA"/>
</svg>
