<svg width="48" height="47" viewBox="0 0 48 47" fill="none" xmlns="http://www.w3.org/2000/svg">
<path d="M24 22.2609C20.7 22.2609 18 21.222 15.9 19.1444C13.8 17.0667 12.75 14.3954 12.75 11.1304C12.75 7.86551 13.8 5.1942 15.9 3.11652C18 1.03884 20.7 0 24 0C27.3 0 30 1.03884 32.1 3.11652C34.2 5.1942 35.25 7.86551 35.25 11.1304C35.25 14.3954 34.2 17.0667 32.1 19.1444C30 21.222 27.3 22.2609 24 22.2609ZM0 46.08V39.1049C0 37.3735 0.45 35.8029 1.35 34.393C2.25 32.9832 3.5 31.932 5.1 31.2394C8.85 29.607 12.1875 28.4568 15.1125 27.789C18.0375 27.1212 21 26.7872 24 26.7872C27 26.7872 29.9625 27.1212 32.8875 27.789C35.8125 28.4568 39.125 29.607 42.825 31.2394C44.425 31.9815 45.6875 33.045 46.6125 34.4301C47.5375 35.8153 48 37.3735 48 39.1049V46.08H0ZM4.5 41.6278H43.5V39.1049C43.5 38.3134 43.3 37.559 42.9 36.8417C42.5 36.1245 41.875 35.5927 41.025 35.2464C37.525 33.5644 34.5375 32.4761 32.0625 31.9815C29.5875 31.4868 26.9 31.2394 24 31.2394C21.1 31.2394 18.4125 31.4991 15.9375 32.0186C13.4625 32.538 10.45 33.6139 6.9 35.2464C6.15 35.5927 5.5625 36.1245 5.1375 36.8417C4.7125 37.559 4.5 38.3134 4.5 39.1049V41.6278ZM24 17.8087C25.95 17.8087 27.5625 17.178 28.8375 15.9165C30.1125 14.6551 30.75 13.0597 30.75 11.1304C30.75 9.20116 30.1125 7.6058 28.8375 6.34435C27.5625 5.0829 25.95 4.45217 24 4.45217C22.05 4.45217 20.4375 5.0829 19.1625 6.34435C17.8875 7.6058 17.25 9.20116 17.25 11.1304C17.25 13.0597 17.8875 14.6551 19.1625 15.9165C20.4375 17.178 22.05 17.8087 24 17.8087Z" fill="#FF3B30"/>
</svg>
