<svg width="20" height="18" viewBox="0 0 20 18" fill="none" xmlns="http://www.w3.org/2000/svg">
<path d="m9.50781,15.2144l6.73439,0c1.276,0 1.914,-0.4167 1.914,-1.25c0,-0.5105 -0.1562,-1.0547 -0.4687,-1.6328c-0.3073,-0.5782 -0.7578,-1.1224 -1.3516,-1.6329c-0.5885,-0.51559 -1.3047,-0.93486 -2.1484,-1.25778c-0.8437,-0.32291 -1.7943,-0.48437 -2.8516,-0.48437c-0.7083,0 -1.36975,0.07813 -1.98434,0.23437c-0.60937,0.15105 -1.16406,0.35938 -1.66406,0.625c0.16146,0.13021 0.3151,0.27084 0.46094,0.42188c0.15104,0.14583 0.29166,0.3047 0.42187,0.4766c0.38021,-0.1771 0.80209,-0.31775 1.26563,-0.42191c0.46356,-0.10417 0.96356,-0.15625 1.49996,-0.15625c0.8959,0 1.6875,0.13021 2.375,0.39066c0.6927,0.2552 1.2761,0.5781 1.75,0.9687c0.474,0.3906 0.8308,0.7969 1.0703,1.2188c0.2448,0.4166 0.3672,0.7838 0.3672,1.1015c0,0.0834 -0.0234,0.1407 -0.0703,0.1719c-0.0416,0.0312 -0.112,0.0469 -0.2109,0.0469l-6.91408,0c-0.0052,0.2031 -0.02343,0.4036 -0.05468,0.6015c-0.03125,0.198 -0.07813,0.3907 -0.14063,0.5782zm1.82809,-7.2266c0.6198,0 1.1849,-0.16667 1.6953,-0.5c0.5105,-0.33333 0.9167,-0.77604 1.2188,-1.32812c0.3073,-0.5573 0.4609,-1.17188 0.4609,-1.84376c0,-0.66666 -0.151,-1.26822 -0.4531,-1.80468c-0.3021,-0.54167 -0.7083,-0.97136 -1.2187,-1.28906c-0.5105,-0.31771 -1.0782,-0.47657 -1.7032,-0.47657c-0.6145,0 -1.1797,0.16146 -1.69528,0.48438c-0.51041,0.32291 -0.91927,0.75521 -1.22656,1.29687c-0.30208,0.54167 -0.45312,1.14323 -0.45312,1.80469c0.00521,0.66667 0.15885,1.27865 0.46094,1.83594c0.30729,0.55208 0.71614,0.99479 1.22656,1.32812c0.51046,0.32813 1.07296,0.49219 1.68746,0.49219zm0,-1.17969c-0.3855,0 -0.7317,-0.10937 -1.0547,-0.32812c-0.31766,-0.22396 -0.57547,-0.52344 -0.77339,-0.89844c-0.19271,-0.375 -0.28906,-0.79167 -0.28906,-1.25c0,-0.45313 0.09635,-0.85937 0.28906,-1.21875c0.19271,-0.36458 0.44792,-0.65365 0.76559,-0.86719c0.323,-0.21354 0.6771,-0.32031 1.0625,-0.32031c0.3907,0 0.7448,0.10417 1.0625,0.3125c0.323,0.20833 0.5782,0.49479 0.7657,0.85938c0.1927,0.35937 0.289,0.76562 0.289,1.21874c0,0.45834 -0.0963,0.87761 -0.289,1.25782c-0.1927,0.375 -0.4506,0.67448 -0.7735,0.89844c-0.3177,0.22395 -0.6692,0.33593 -1.0547,0.33593zm-6.66402,11.00779c0.53645,0 1.04427,-0.1041 1.52343,-0.3125c0.47917,-0.2083 0.90104,-0.4948 1.26563,-0.8594c0.36979,-0.3645 0.65885,-0.7864 0.86718,-1.2656c0.20834,-0.4791 0.3125,-0.9896 0.3125,-1.5312c0,-0.5469 -0.10416,-1.0599 -0.3125,-1.5391c-0.20312,-0.4792 -0.48697,-0.901 -0.85156,-1.2656c-0.36458,-0.3646 -0.78646,-0.64845 -1.26562,-0.85158c-0.47917,-0.20833 -0.99219,-0.3125 -1.53906,-0.3125c-0.54167,0 -1.05209,0.10417 -1.53126,0.3125c-0.47916,0.20313 -0.90104,0.48958 -1.26562,0.85938c-0.36458,0.3646 -0.65104,0.7865 -0.85938,1.2656c-0.20833,0.474 -0.31249,0.9844 -0.31249,1.5313c0,0.5468 0.10416,1.0599 0.31249,1.539c0.20834,0.4792 0.4948,0.9011 0.85938,1.2657c0.36458,0.3645 0.78646,0.6484 1.26562,0.8515c0.47917,0.2084 0.98959,0.3125 1.53126,0.3125zm-2.01563,-3.4922c-0.13021,0 -0.24219,-0.0494 -0.33594,-0.1484c-0.09375,-0.0937 -0.14062,-0.2031 -0.14062,-0.3281c0,-0.125 0.04687,-0.237 0.14062,-0.336c0.09375,-0.0937 0.20573,-0.1406 0.33594,-0.1406l4.01563,0c0.1302,0 0.24218,0.0469 0.33593,0.1406c0.09896,0.099 0.14844,0.211 0.14844,0.336c0,0.125 -0.04948,0.2344 -0.14844,0.3281c-0.09375,0.099 -0.20573,0.1484 -0.33593,0.1484l-4.01563,0z" fill="#56A0BB"/>
</svg>
