<svg width="30" height="25" viewBox="0 0 30 25" fill="none" xmlns="http://www.w3.org/2000/svg">
<path d="M2.61279 17.9116C3.02832 20.1914 4.36475 21.1235 6.68945 20.7192L6.92529 20.6855V20.7866C6.92529 23.1113 8.09326 24.2681 10.4517 24.2681H25.7925C28.1284 24.2681 29.3076 23.1001 29.3076 20.7866V10.1963C29.3076 7.88281 28.1284 6.71484 25.7925 6.71484H23.2544L22.6929 3.61523C22.2886 1.33545 20.9409 0.39209 18.6274 0.796387L3.63477 3.43555C1.32129 3.85107 0.366699 5.19873 0.770996 7.47852L2.61279 17.9116ZM4.37598 17.5073L2.56787 7.26514C2.36572 6.1084 2.87109 5.40088 3.98291 5.20996L18.9082 2.58203C19.9976 2.39111 20.7275 2.86279 20.9409 4.01953L21.4238 6.71484H10.4517C8.09326 6.71484 6.92529 7.88281 6.92529 10.1963V18.8438L6.40869 18.9336C5.29688 19.1357 4.57812 18.6528 4.37598 17.5073ZM8.7334 10.2974C8.7334 9.12939 9.35107 8.52295 10.4741 8.52295H25.7588C26.8706 8.52295 27.4995 9.12939 27.4995 10.2974V19.0459L23.3105 15.0815C22.8726 14.6772 22.3335 14.4751 21.7832 14.4751C21.2329 14.4751 20.7388 14.6548 20.2671 15.0703L15.73 19.0908L13.9331 17.4624C13.4951 17.0693 13.0459 16.8896 12.563 16.8896C12.125 16.8896 11.7095 17.0693 11.2715 17.4399L8.7334 19.6523V10.2974ZM14.9214 15.3286C16.2354 15.3286 17.3022 14.2393 17.3022 12.9253C17.3022 11.6338 16.2354 10.5444 14.9214 10.5444C13.6074 10.5444 12.5518 11.6338 12.5518 12.9253C12.5518 14.2393 13.6074 15.3286 14.9214 15.3286Z"/>
</svg>
