<svg width="18" height="15" viewBox="0 0 18 15" fill="#56A0BB" xmlns="http://www.w3.org/2000/svg">
<path d="M1.21481 10.9535C1.47609 12.4048 2.31641 12.9982 3.77814 12.7408L3.92643 12.7194V12.7837C3.92643 14.2636 4.66082 15 6.14374 15H15.7898C17.2585 15 18 14.2565 18 12.7837V6.04191C18 4.56915 17.2585 3.82562 15.7898 3.82562H14.1939L13.8408 1.85241C13.5866 0.401101 12.7392 -0.199442 11.2845 0.0579336L1.85741 1.73802C0.402739 2.00255 -0.197489 2.86046 0.0567254 4.31178L1.21481 10.9535ZM2.32347 10.6961L1.18657 4.17594C1.05946 3.43956 1.37723 2.98915 2.07631 2.86761L11.4611 1.19467C12.146 1.07314 12.605 1.37341 12.7392 2.10979L13.0428 3.82562H6.14374C4.66082 3.82562 3.92643 4.56915 3.92643 6.04191V11.5469L3.6016 11.6041C2.90251 11.7328 2.45057 11.4253 2.32347 10.6961ZM5.06333 6.10625C5.06333 5.36272 5.45171 4.97666 6.15786 4.97666H15.7686C16.4677 4.97666 16.8631 5.36272 16.8631 6.10625V11.6756L14.2292 9.15186C13.9538 8.89449 13.6148 8.7658 13.2688 8.7658C12.9228 8.7658 12.6121 8.88019 12.3155 9.14471L9.46264 11.7042L8.3328 10.6675C8.05741 10.4173 7.77495 10.3029 7.4713 10.3029C7.1959 10.3029 6.93463 10.4173 6.65923 10.6532L5.06333 12.0616V6.10625ZM8.95422 9.30915C9.78041 9.30915 10.4513 8.61566 10.4513 7.77919C10.4513 6.95702 9.78041 6.26354 8.95422 6.26354C8.12802 6.26354 7.46424 6.95702 7.46424 7.77919C7.46424 8.61566 8.12802 9.30915 8.95422 9.30915Z"/>
</svg>
