<svg width="12" height="9" viewBox="0 0 12 9" fill="none" xmlns="http://www.w3.org/2000/svg">
<path d="M1.5342 9H10.4658C10.9739 9 11.3567 8.87729 11.614 8.63188C11.8713 8.38962 12 8.02465 12 7.53697V2.5957C12 2.11117 11.8713 1.74777 11.614 1.50551C11.3567 1.26009 10.9739 1.13739 10.4658 1.13739H9.0684C8.93811 1.13739 8.83388 1.12795 8.7557 1.10907C8.67752 1.09019 8.60749 1.05873 8.5456 1.01468C8.48697 0.967488 8.4202 0.904562 8.34528 0.825905L7.9544 0.401154C7.83388 0.272155 7.70033 0.173047 7.55375 0.103828C7.40717 0.0346093 7.20847 0 6.95765 0H5.00814C4.75733 0 4.55863 0.0346093 4.41205 0.103828C4.26873 0.173047 4.13518 0.272155 4.0114 0.401154L3.62052 0.825905C3.51303 0.942318 3.41368 1.02412 3.32248 1.07132C3.23127 1.11536 3.08958 1.13739 2.89739 1.13739H1.5342C1.0228 1.13739 0.638436 1.26009 0.381107 1.50551C0.127036 1.74777 0 2.11117 0 2.5957V7.53697C0 8.02465 0.127036 8.38962 0.381107 8.63188C0.638436 8.87729 1.0228 9 1.5342 9ZM1.54397 8.24017C1.30293 8.24017 1.11564 8.17881 0.982085 8.05611C0.851792 7.93026 0.786645 7.74463 0.786645 7.49921V2.63818C0.786645 2.39276 0.851792 2.2087 0.982085 2.086C1.11564 1.96015 1.30293 1.89722 1.54397 1.89722H3.09283C3.31433 1.89722 3.49186 1.87362 3.62541 1.82643C3.76221 1.77609 3.89251 1.68485 4.01629 1.5527L4.39739 1.13739C4.53746 0.986366 4.66124 0.885684 4.76873 0.835343C4.87622 0.785003 5.03746 0.759832 5.25244 0.759832H6.71336C6.92834 0.759832 7.08958 0.785003 7.19707 0.835343C7.30456 0.885684 7.42834 0.986366 7.5684 1.13739L7.94951 1.5527C8.07329 1.68485 8.20195 1.77609 8.3355 1.82643C8.47231 1.87362 8.65147 1.89722 8.87296 1.89722H10.4511C10.6922 1.89722 10.8795 1.96015 11.013 2.086C11.1466 2.2087 11.2134 2.39276 11.2134 2.63818V7.49921C11.2134 7.74463 11.1466 7.93026 11.013 8.05611C10.8795 8.17881 10.6922 8.24017 10.4511 8.24017H1.54397ZM6 7.56057C6.36808 7.56057 6.71336 7.49449 7.03583 7.36235C7.35831 7.2302 7.64169 7.04615 7.88599 6.81017C8.13029 6.5742 8.32085 6.30047 8.45765 5.98899C8.59446 5.6775 8.66287 5.34085 8.66287 4.97902C8.66287 4.50079 8.54397 4.0666 8.30619 3.67646C8.0684 3.28631 7.74756 2.9764 7.34365 2.74672C6.93974 2.51704 6.49186 2.4022 6 2.4022C5.62866 2.4022 5.28176 2.46827 4.95928 2.60042C4.63681 2.73256 4.35342 2.91662 4.10912 3.1526C3.86808 3.38857 3.67752 3.6623 3.53746 3.97378C3.40065 4.28526 3.33225 4.62035 3.33225 4.97902C3.33225 5.34085 3.40065 5.6775 3.53746 5.98899C3.67752 6.30047 3.86808 6.5742 4.10912 6.81017C4.35342 7.04615 4.63681 7.2302 4.95928 7.36235C5.28176 7.49449 5.62866 7.56057 6 7.56057ZM6 6.84321C5.64495 6.84321 5.32085 6.75983 5.02769 6.59308C4.73778 6.42632 4.50489 6.20294 4.32899 5.92292C4.15635 5.63975 4.07003 5.32512 4.07003 4.97902C4.07003 4.63608 4.15635 4.32459 4.32899 4.04457C4.50489 3.76141 4.73778 3.53644 5.02769 3.36969C5.32085 3.19979 5.64495 3.11484 6 3.11484C6.35505 3.11484 6.67752 3.19979 6.96743 3.36969C7.26059 3.53644 7.49349 3.76141 7.66612 4.04457C7.83876 4.32459 7.92508 4.63608 7.92508 4.97902C7.92508 5.32512 7.83876 5.63975 7.66612 5.92292C7.49349 6.20294 7.26059 6.42632 6.96743 6.59308C6.67752 6.75983 6.35505 6.84321 6 6.84321ZM8.86319 3.24227C8.86319 3.40902 8.92345 3.54903 9.04397 3.6623C9.1645 3.77556 9.30945 3.83062 9.47883 3.82748C9.64169 3.82748 9.78339 3.77084 9.90391 3.65758C10.0244 3.54431 10.0847 3.40587 10.0847 3.24227C10.0847 3.08495 10.0244 2.94809 9.90391 2.83167C9.78339 2.71526 9.64169 2.65705 9.47883 2.65705C9.30945 2.65705 9.1645 2.71526 9.04397 2.83167C8.92345 2.94809 8.86319 3.08495 8.86319 3.24227Z" fill="#56A0BB"/>
</svg>
