<svg width="18" height="14" viewBox="0 0 18 14" fill="none" xmlns="http://www.w3.org/2000/svg">
<path d="M2.3013 14H15.6987C16.4609 14 17.035 13.8091 17.421 13.4274C17.807 13.0505 18 12.4828 18 11.7242V4.03776C18 3.28404 17.807 2.71876 17.421 2.3419C17.035 1.96015 16.4609 1.76927 15.6987 1.76927H13.6026C13.4072 1.76927 13.2508 1.75459 13.1336 1.72522C13.0163 1.69586 12.9112 1.64691 12.8184 1.5784C12.7305 1.50498 12.6303 1.4071 12.5179 1.28474L11.9316 0.624017C11.7508 0.423353 11.5505 0.269184 11.3306 0.16151C11.1107 0.0538367 10.8127 0 10.4365 0H7.51222C7.13599 0 6.83795 0.0538367 6.61808 0.16151C6.40309 0.269184 6.20277 0.423353 6.0171 0.624017L5.43078 1.28474C5.26954 1.46583 5.12052 1.59308 4.98371 1.66649C4.84691 1.73501 4.63437 1.76927 4.34609 1.76927H2.3013C1.5342 1.76927 0.957655 1.96015 0.571661 2.3419C0.190554 2.71876 0 3.28404 0 4.03776V11.7242C0 12.4828 0.190554 13.0505 0.571661 13.4274C0.957655 13.8091 1.5342 14 2.3013 14ZM2.31596 12.818C1.9544 12.818 1.67345 12.7226 1.47313 12.5317C1.27769 12.336 1.17997 12.0472 1.17997 11.6654V4.10383C1.17997 3.72208 1.27769 3.43576 1.47313 3.24489C1.67345 3.04912 1.9544 2.95123 2.31596 2.95123H4.63925C4.9715 2.95123 5.23779 2.91453 5.43811 2.84111C5.64332 2.7628 5.83876 2.62087 6.02443 2.41531L6.59609 1.76927C6.80619 1.53435 6.99186 1.37773 7.15309 1.29942C7.31433 1.22112 7.55619 1.18196 7.87866 1.18196H10.07C10.3925 1.18196 10.6344 1.22112 10.7956 1.29942C10.9568 1.37773 11.1425 1.53435 11.3526 1.76927L11.9243 2.41531C12.1099 2.62087 12.3029 2.7628 12.5033 2.84111C12.7085 2.91453 12.9772 2.95123 13.3094 2.95123H15.6767C16.0383 2.95123 16.3192 3.04912 16.5195 3.24489C16.7199 3.43576 16.82 3.72208 16.82 4.10383V11.6654C16.82 12.0472 16.7199 12.336 16.5195 12.5317C16.3192 12.7226 16.0383 12.818 15.6767 12.818H2.31596ZM9 11.7609C9.55212 11.7609 10.07 11.6581 10.5537 11.4525C11.0375 11.247 11.4625 10.9607 11.829 10.5936C12.1954 10.2265 12.4813 9.80073 12.6865 9.3162C12.8917 8.83167 12.9943 8.30799 12.9943 7.74515C12.9943 7.00122 12.816 6.32582 12.4593 5.71893C12.1026 5.11204 11.6213 4.62996 11.0155 4.27268C10.4096 3.9154 9.73779 3.73676 9 3.73676C8.443 3.73676 7.92264 3.83954 7.43893 4.0451C6.95521 4.25066 6.53013 4.53697 6.16368 4.90404C5.80212 5.27111 5.51629 5.69691 5.30619 6.18144C5.10098 6.66597 4.99837 7.1872 4.99837 7.74515C4.99837 8.30799 5.10098 8.83167 5.30619 9.3162C5.51629 9.80073 5.80212 10.2265 6.16368 10.5936C6.53013 10.9607 6.95521 11.247 7.43893 11.4525C7.92264 11.6581 8.443 11.7609 9 11.7609ZM9 10.645C8.46743 10.645 7.98127 10.5153 7.54153 10.2559C7.10668 9.9965 6.75733 9.64901 6.49349 9.21342C6.23453 8.77294 6.10505 8.28352 6.10505 7.74515C6.10505 7.21168 6.23453 6.72715 6.49349 6.29156C6.75733 5.85107 7.10668 5.50114 7.54153 5.24174C7.98127 4.97745 8.46743 4.84531 9 4.84531C9.53257 4.84531 10.0163 4.97745 10.4511 5.24174C10.8909 5.50114 11.2402 5.85107 11.4992 6.29156C11.7581 6.72715 11.8876 7.21168 11.8876 7.74515C11.8876 8.28352 11.7581 8.77294 11.4992 9.21342C11.2402 9.64901 10.8909 9.9965 10.4511 10.2559C10.0163 10.5153 9.53257 10.645 9 10.645ZM13.2948 5.04352C13.2948 5.30292 13.3852 5.52071 13.566 5.69691C13.7467 5.8731 13.9642 5.95875 14.2182 5.95385C14.4625 5.95385 14.6751 5.86576 14.8559 5.68956C15.0366 5.51337 15.127 5.29802 15.127 5.04352C15.127 4.79881 15.0366 4.58591 14.8559 4.40482C14.6751 4.22374 14.4625 4.13319 14.2182 4.13319C13.9642 4.13319 13.7467 4.22374 13.566 4.40482C13.3852 4.58591 13.2948 4.79881 13.2948 5.04352Z" fill="#56A0BB"/>
</svg>
