<svg width="20" height="20" viewBox="0 0 20 20" fill="none" xmlns="http://www.w3.org/2000/svg">
<path opacity="0.3" d="M5.42812 15.775H6.87187V13.6094H9.0375V12.1656H6.87187V10H5.42812V12.1656H3.2625V13.6094H5.42812V15.775ZM10.9625 12.1656H16.7375V11.2031H10.9625V12.1656ZM10.9625 15.0531H14.8125V14.0906H10.9625V15.0531ZM12.5025 5.1875H18.1812C18.5662 5.1875 18.9031 5.33187 19.1919 5.62062C19.4806 5.90937 19.625 6.24625 19.625 6.63125V18.1812C19.625 18.5662 19.4806 18.9031 19.1919 19.1919C18.9031 19.4806 18.5662 19.625 18.1812 19.625H1.81875C1.43375 19.625 1.09688 19.4806 0.808125 19.1919C0.519375 18.9031 0.375 18.5662 0.375 18.1812V6.63125C0.375 6.24625 0.519375 5.90937 0.808125 5.62062C1.09688 5.33187 1.43375 5.1875 1.81875 5.1875H7.52156V1.81875C7.52156 1.43375 7.66594 1.09688 7.95469 0.808125C8.24344 0.519375 8.58031 0.375 8.96531 0.375H11.0588C11.4438 0.375 11.7806 0.519375 12.0694 0.808125C12.3581 1.09688 12.5025 1.43375 12.5025 1.81875V5.1875ZM8.96531 6.63125H11.0588V1.81875H8.96531V6.63125ZM7.52156 6.63125H1.81875V18.1812H18.1812V6.63125H12.5025C12.5025 7.08042 12.3541 7.43333 12.0573 7.69C11.7606 7.94667 11.3876 8.075 10.9384 8.075H9.06156C8.62844 8.075 8.26349 7.94667 7.96672 7.69C7.66995 7.43333 7.52156 7.08042 7.52156 6.63125Z" fill="black"/>
</svg>
