<svg width="27" height="17" viewBox="0 0 27 17" fill="none" xmlns="http://www.w3.org/2000/svg">
<path d="M13.2422 16.6113C21.0645 16.6113 26.4746 10.2832 26.4746 8.31055C26.4746 6.32812 21.0547 0.00976562 13.2422 0.00976562C5.51758 0.00976562 0 6.32812 0 8.31055C0 10.2832 5.51758 16.6113 13.2422 16.6113ZM13.2422 13.75C10.1953 13.75 7.7832 11.2793 7.77344 8.31055C7.76367 5.26367 10.1953 2.87109 13.2422 2.87109C16.2598 2.87109 18.7012 5.26367 18.7012 8.31055C18.7012 11.2793 16.2598 13.75 13.2422 13.75ZM13.2422 10.2734C14.3262 10.2734 15.2246 9.38477 15.2246 8.31055C15.2246 7.22656 14.3262 6.33789 13.2422 6.33789C12.1484 6.33789 11.25 7.22656 11.25 8.31055C11.25 9.38477 12.1484 10.2734 13.2422 10.2734Z" fill="#B2BAC6"/>
</svg>
