<svg width="14" height="17" viewBox="0 0 14 17" fill="none" xmlns="http://www.w3.org/2000/svg">
<path d="M3.35156 15.2625H10.3984V12.6431C10.3984 11.6806 10.0583 10.8522 9.37793 10.1578C8.69759 9.46344 7.86328 9.11625 6.875 9.11625C5.88672 9.11625 5.05241 9.46344 4.37207 10.1578C3.69173 10.8522 3.35156 11.6806 3.35156 12.6431V15.2625ZM6.875 7.38375C7.86328 7.38375 8.69759 7.03656 9.37793 6.34219C10.0583 5.64781 10.3984 4.8125 10.3984 3.83625V1.2375H3.35156V3.83625C3.35156 4.8125 3.69173 5.64781 4.37207 6.34219C5.05241 7.03656 5.88672 7.38375 6.875 7.38375ZM0 16.5V15.2625H2.0625V12.6431C2.0625 11.6806 2.32389 10.7972 2.84668 9.99281C3.36947 9.18844 4.09635 8.6075 5.02734 8.25C4.09635 7.8925 3.36947 7.30813 2.84668 6.49687C2.32389 5.68563 2.0625 4.79875 2.0625 3.83625V1.2375H0V0H13.75V1.2375H11.6875V3.83625C11.6875 4.79875 11.4225 5.68563 10.8926 6.49687C10.3626 7.30813 9.63932 7.8925 8.72266 8.25C9.65365 8.6075 10.3805 9.18844 10.9033 9.99281C11.4261 10.7972 11.6875 11.6806 11.6875 12.6431V15.2625H13.75V16.5H0Z" fill="#B2BAC6"/>
</svg>
