<svg width="53" height="53" viewBox="0 0 53 53" fill="none" xmlns="http://www.w3.org/2000/svg">
<path d="M49.4564 53C50.4825 53 51.3296 52.6516 51.9978 51.955C52.6659 51.2583 53 50.3814 53 49.3243C53 48.8438 52.9046 48.3874 52.7136 47.955C52.5466 47.4985 52.2841 47.0901 51.9262 46.7297L42.2975 37L37 42.0811L46.6644 51.8108C47.428 52.6036 48.3587 53 49.4564 53Z" fill="#56A0BB"/>
<path d="M24 48C27.2998 48 30.3984 47.3722 33.2958 46.1167C36.1932 44.8773 38.7445 43.1549 40.9497 40.9497C43.1549 38.7445 44.8773 36.1932 46.1167 33.2958C47.3722 30.3984 48 27.2998 48 24C48 20.7163 47.3722 17.6258 46.1167 14.7284C44.8773 11.831 43.1469 9.27968 40.9256 7.07445C38.7203 4.86922 36.169 3.13883 33.2716 1.8833C30.3742 0.627767 27.2757 0 23.9759 0C20.7083 0 17.6258 0.627767 14.7284 1.8833C11.831 3.13883 9.27163 4.86922 7.0503 7.07445C4.84507 9.27968 3.11469 11.831 1.85915 14.7284C0.619718 17.6258 0 20.7163 0 24C0 27.2998 0.627767 30.3984 1.8833 33.2958C3.13883 36.1932 4.86922 38.7445 7.07445 40.9497C9.27968 43.1549 11.831 44.8773 14.7284 46.1167C17.6258 47.3722 20.7163 48 24 48ZM24 42.3018C21.4728 42.3018 19.0986 41.827 16.8773 40.8773C14.672 39.9437 12.7324 38.6398 11.0583 36.9658C9.38431 35.2917 8.07243 33.3521 7.12274 31.1469C6.18913 28.9256 5.72233 26.5433 5.72233 24C5.72233 21.4728 6.18913 19.1066 7.12274 16.9014C8.07243 14.6801 9.38431 12.7324 11.0583 11.0583C12.7324 9.38431 14.672 8.08048 16.8773 7.14688C19.0825 6.19718 21.4487 5.72233 23.9759 5.72233C26.5352 5.72233 28.9175 6.19718 31.1227 7.14688C33.328 8.08048 35.2676 9.38431 36.9417 11.0583C38.6318 12.7324 39.9437 14.6801 40.8773 16.9014C41.827 19.1066 42.3018 21.4728 42.3018 24C42.3179 26.5433 41.8511 28.9256 40.9014 31.1469C39.9517 33.3521 38.6398 35.2917 36.9658 36.9658C35.3078 38.6398 33.3682 39.9437 31.1469 40.8773C28.9256 41.827 26.5433 42.3018 24 42.3018Z" fill="#56A0BB"/>
<path d="M24.5 21.5942C22.7812 21.5942 21.375 21.0531 20.2813 19.971C19.1875 18.8889 18.6406 17.4976 18.6406 15.7971C18.6406 14.0966 19.1875 12.7053 20.2813 11.6232C21.375 10.5411 22.7812 10 24.5 10C26.2188 10 27.625 10.5411 28.7188 11.6232C29.8125 12.7053 30.3594 14.0966 30.3594 15.7971C30.3594 17.4976 29.8125 18.8889 28.7188 19.971C27.625 21.0531 26.2188 21.5942 24.5 21.5942ZM12 34V30.3671C12 29.4654 12.2344 28.6473 12.7031 27.913C13.1719 27.1787 13.8229 26.6312 14.6563 26.2705C16.6094 25.4203 18.3477 24.8213 19.8711 24.4734C21.3945 24.1256 22.9375 23.9517 24.5 23.9517C26.0625 23.9517 27.6055 24.1256 29.1289 24.4734C30.6523 24.8213 32.3776 25.4203 34.3047 26.2705C35.138 26.657 35.7956 27.211 36.2773 27.9324C36.7591 28.6538 37 29.4654 37 30.3671V34H12ZM14.3438 31.6812H34.6563V30.3671C34.6563 29.9549 34.5521 29.562 34.3438 29.1884C34.1354 28.8148 33.8099 28.5378 33.3672 28.3575C31.5443 27.4815 29.9883 26.9147 28.6992 26.657C27.4102 26.3994 26.0104 26.2705 24.5 26.2705C22.9896 26.2705 21.5898 26.4058 20.3008 26.6763C19.0117 26.9469 17.4427 27.5072 15.5938 28.3575C15.2031 28.5378 14.8971 28.8148 14.6758 29.1884C14.4544 29.562 14.3438 29.9549 14.3438 30.3671V31.6812ZM24.5 19.2754C25.5156 19.2754 26.3555 18.9469 27.0195 18.2899C27.6836 17.6329 28.0156 16.8019 28.0156 15.7971C28.0156 14.7923 27.6836 13.9614 27.0195 13.3043C26.3555 12.6473 25.5156 12.3188 24.5 12.3188C23.4844 12.3188 22.6445 12.6473 21.9805 13.3043C21.3164 13.9614 20.9844 14.7923 20.9844 15.7971C20.9844 16.8019 21.3164 17.6329 21.9805 18.2899C22.6445 18.9469 23.4844 19.2754 24.5 19.2754Z" fill="#56A0BB"/>
</svg>
