<svg width="19" height="19" viewBox="0 0 19 19" fill="none" xmlns="http://www.w3.org/2000/svg">
<path d="M9.53809 18.6191C14.4424 18.6191 18.5029 14.5498 18.5029 9.6543C18.5029 4.75 14.4336 0.689453 9.5293 0.689453C4.63379 0.689453 0.573242 4.75 0.573242 9.6543C0.573242 14.5498 4.64258 18.6191 9.53809 18.6191ZM9.53809 17.125C5.38965 17.125 2.07617 13.8027 2.07617 9.6543C2.07617 5.50586 5.38086 2.18359 9.5293 2.18359C13.6777 2.18359 17.0088 5.50586 17.0088 9.6543C17.0088 13.8027 13.6865 17.125 9.53809 17.125ZM9.45898 6.61328C10.1006 6.61328 10.6016 6.10352 10.6016 5.46191C10.6016 4.82031 10.1006 4.31055 9.45898 4.31055C8.82617 4.31055 8.31641 4.82031 8.31641 5.46191C8.31641 6.10352 8.82617 6.61328 9.45898 6.61328ZM8 14.5762H11.5771C11.9375 14.5762 12.2188 14.3125 12.2188 13.9521C12.2188 13.6094 11.9375 13.3369 11.5771 13.3369H10.4873V8.86328C10.4873 8.38867 10.25 8.07227 9.80176 8.07227H8.14941C7.78906 8.07227 7.50781 8.34473 7.50781 8.6875C7.50781 9.04785 7.78906 9.31152 8.14941 9.31152H9.08984V13.3369H8C7.63965 13.3369 7.3584 13.6094 7.3584 13.9521C7.3584 14.3125 7.63965 14.5762 8 14.5762Z" fill="#25272B"/>
</svg>
