<svg width="26" height="26" viewBox="0 0 26 26" fill="none" xmlns="http://www.w3.org/2000/svg">
<path d="M26 4.84816C26 4.26316 25.5811 3.76832 25.0036 3.67187C23.8537 3.48023 22.7722 2.98455 21.8765 2.23768L21.7012 2.09174C21.0554 1.55455 20.2372 1.25806 19.3973 1.25806C17.9052 1.25806 16.5511 2.19658 16.0273 3.59345L15.9845 3.7071C15.8319 4.11471 15.4968 4.42126 15.0943 4.54832C15.0947 4.40616 15.0968 4.26316 15.0968 4.121V3.90419C15.3614 3.50581 15.5161 3.029 15.5161 2.51613C15.5161 1.12848 14.3876 0 13 0C11.6124 0 10.4839 1.12848 10.4839 2.51613C10.4839 3.029 10.6386 3.50581 10.9032 3.90419V4.121C10.9032 4.26316 10.9062 4.40616 10.9066 4.54832C10.5036 4.42126 10.1681 4.11471 10.0155 3.7071L9.9731 3.59303C9.4489 2.19658 8.09481 1.25806 6.60274 1.25806C5.76277 1.25806 4.94461 1.55455 4.29839 2.09216L4.12352 2.2381C3.22777 2.98497 2.14626 3.48064 0.995968 3.67229C0.418935 3.76832 0 4.26316 0 4.84816C0 5.37613 0.346387 5.83323 0.846677 5.98503C0.886516 6.61574 1.24968 7.17432 1.82084 7.4599L1.90932 7.50393C2.10894 7.60374 2.31777 7.68174 2.53039 7.7501C2.59706 8.34474 2.95394 8.86516 3.49868 9.13732C4.16335 9.46945 4.90687 9.64516 5.64955 9.64516H6.09784C5.95148 10.0217 5.87097 10.4239 5.87097 10.8311V10.9242C5.87097 12.3747 6.43584 13.7385 7.46158 14.7642C8.24326 15.5463 9.22245 16.0579 10.2947 16.258C9.62587 16.7138 9.22581 17.4661 9.22581 18.2776C9.22581 19.0429 9.59148 19.7743 10.2037 20.2335L10.6956 20.6021L10.3145 20.8562C9.633 21.3104 9.22581 22.0711 9.22581 22.8905C9.22581 23.6558 9.59148 24.3872 10.2037 24.8464L11.7419 26V25.1613C11.7419 24.7252 11.8229 24.3008 11.9747 23.9062C12.0216 24.3415 12.0661 24.7772 12.1164 25.2125C12.1684 25.6612 12.5479 26 13 26C13.4521 26 13.8316 25.6612 13.8836 25.2125C14.0203 24.0295 14.1474 22.8184 14.2627 21.6081L15.6855 20.6595C16.367 20.2058 16.7742 19.4451 16.7742 18.6256C16.7742 17.8603 16.4085 17.129 15.7963 16.6698L15.3215 16.3137C16.5352 16.1733 17.672 15.6306 18.5384 14.7642C19.5642 13.7385 20.129 12.3747 20.129 10.9242V10.8311C20.129 10.4239 20.0485 10.0217 19.9022 9.64516H20.3505C21.0931 9.64516 21.8366 9.46945 22.5017 9.13732C23.0465 8.86516 23.4029 8.34474 23.4696 7.7501C23.6818 7.68216 23.8911 7.60374 24.0907 7.50393L24.1792 7.4599C24.7503 7.17432 25.1135 6.61574 25.1533 5.98503C25.6536 5.83365 26 5.37613 26 4.84816ZM12.3882 19.4736C12.3647 19.193 12.3408 18.9125 12.3185 18.6315C12.5731 18.244 12.9015 17.9027 13.2998 17.6372L13.7796 17.3173C13.7578 17.6175 13.7372 17.9178 13.7137 18.218C13.4521 18.6324 13.109 18.9926 12.7002 19.2652L12.3882 19.4736ZM16.4198 12.7547C16.2592 12.4871 16.0504 12.2477 15.7963 12.0569L14.9492 11.4215C14.9601 11.1485 14.9714 10.876 14.981 10.6021C15.2524 10.7908 15.5807 10.9032 15.9355 10.9032H17.1935V10.9754C17.1935 11.6186 16.9327 12.2485 16.4777 12.7035C16.4597 12.7215 16.4387 12.7371 16.4198 12.7547ZM11.141 13.4139C10.5363 13.3862 9.95129 13.1325 9.52229 12.7035C9.06729 12.2485 8.80645 11.6186 8.80645 10.9754V10.9032H10.0645C10.4205 10.9032 10.7493 10.79 11.0215 10.6005C11.0542 11.5394 11.0936 12.4775 11.141 13.4139ZM12.0745 15.0699C11.8686 11.6249 11.7575 8.14345 11.7465 4.69468C12.116 4.90813 12.5433 5.03226 13 5.03226C13.4571 5.03226 13.8848 4.90771 14.2547 4.69384C14.2459 7.43474 14.1771 10.2033 14.0455 12.935C13.7947 13.6265 13.3317 14.2321 12.7006 14.6527L12.0745 15.0699ZM13 0.83871C13.9251 0.83871 14.6774 1.59103 14.6774 2.51613C14.6774 3.44123 13.9251 4.19355 13 4.19355C12.0749 4.19355 11.3226 3.44123 11.3226 2.51613C11.3226 1.59103 12.0749 0.83871 13 0.83871ZM5.64955 8.80645C5.03645 8.80645 4.4221 8.66136 3.87358 8.3871C3.67984 8.29023 3.53852 8.13045 3.45087 7.943C3.59094 7.95684 3.73226 7.96774 3.87316 7.96774H4.09416C4.77184 7.96774 5.45077 7.80755 6.05842 7.50435L5.6831 6.75413C5.19245 6.99903 4.64268 7.12903 4.09458 7.12903H3.87358C3.32506 7.12903 2.77571 6.99903 2.28465 6.75371L2.19574 6.70968C1.97558 6.59981 1.81832 6.40984 1.73865 6.18758C2.1341 6.25384 2.53458 6.29032 2.93548 6.29032C3.52594 6.29032 4.11597 6.21735 4.68964 6.07394L5.55352 5.85797L5.35055 5.04484L4.48668 5.26081C3.47268 5.5141 2.39913 5.5141 1.38513 5.26081L1.10668 5.19119C0.949 5.15135 0.83871 5.01045 0.83871 4.84816C0.83871 4.67455 0.963258 4.52777 1.13394 4.49926C2.431 4.28329 3.65048 3.72387 4.66071 2.88265L4.83516 2.73671C5.33084 2.32406 5.95861 2.09677 6.60274 2.09677C7.74716 2.09677 8.78548 2.81681 9.18723 3.88784L9.23 4.00232C9.50677 4.73913 10.1568 5.26668 10.9137 5.40968C10.9192 6.20729 10.9288 7.0049 10.9447 7.80461C10.6881 7.64484 10.3883 7.54839 10.0645 7.54839H9.15368C8.28939 7.54839 7.44355 7.89897 6.83255 8.50997C6.73945 8.60306 6.65474 8.70329 6.57381 8.80645H5.64955ZM6.70968 10.9242V10.8311C6.70968 10.1878 6.97052 9.55794 7.42552 9.10294C7.88052 8.64794 8.51039 8.3871 9.15368 8.3871H10.0645C10.5266 8.3871 10.9032 8.76326 10.9032 9.22581C10.9032 9.68835 10.5266 10.0645 10.0645 10.0645H7.96774V10.9754C7.96774 11.8396 8.31832 12.6855 8.92932 13.2965C9.52564 13.8928 10.3459 14.2384 11.1884 14.2551C11.2115 14.6749 11.2333 15.0955 11.2593 15.514C10.0486 15.5031 8.91171 15.0284 8.05455 14.1713C7.18732 13.304 6.70968 12.1508 6.70968 10.9242ZM10.0645 18.2776C10.0645 17.7391 10.3321 17.2397 10.7795 16.9411L13.1652 15.3505C14.1532 14.6921 14.8158 13.671 15.0255 12.527L15.293 12.7274C15.6956 13.0294 15.9355 13.5099 15.9355 14.0127C15.9355 14.5512 15.6679 15.0506 15.2205 15.3492L12.8348 16.9398C11.8472 17.5982 11.1842 18.6194 10.9745 19.7634L10.707 19.5625C10.3044 19.261 10.0645 18.7804 10.0645 18.2776ZM13.0507 25.116C13.044 25.1676 12.9555 25.1676 12.9493 25.116C12.8591 24.3331 12.7748 23.5501 12.6947 22.7664C12.875 22.5747 13.0755 22.3998 13.2998 22.2505L13.3606 22.2103C13.2634 23.1865 13.161 24.1611 13.0507 25.116ZM15.9355 18.6256C15.9355 19.1641 15.6679 19.6635 15.2205 19.9621L12.8348 21.5527C11.8472 22.2111 11.1842 23.2323 10.9745 24.3763L10.707 24.1754C10.3044 23.8739 10.0645 23.3933 10.0645 22.8905C10.0645 22.352 10.3321 21.8526 10.7795 21.554L11.4069 21.1359L11.7419 21.3871V20.9124L13.1652 19.9634C13.7309 19.586 14.1943 19.0748 14.5281 18.4835L14.5348 18.4839C14.5353 18.4793 14.5357 18.4747 14.5361 18.4701C14.5671 18.4147 14.6036 18.3631 14.6321 18.3069C14.8183 17.9383 14.9433 17.5412 15.0179 17.1344L15.2926 17.3403C15.6956 17.6423 15.9355 18.1228 15.9355 18.6256ZM19.2903 10.9242C19.2903 12.1508 18.8127 13.304 17.9454 14.1713C17.5269 14.5898 17.0325 14.9169 16.4953 15.1454C16.6752 14.8011 16.7742 14.4145 16.7742 14.0127C16.7742 13.8689 16.7574 13.7276 16.7323 13.5879C16.8514 13.4978 16.9654 13.4017 17.0707 13.2965C17.6817 12.6855 18.0323 11.8392 18.0323 10.9754V10.0645H15.9355C15.4729 10.0645 15.0968 9.68835 15.0968 9.22581C15.0968 8.76326 15.4729 8.3871 15.9355 8.3871H16.8463C17.4896 8.3871 18.1195 8.64794 18.5745 9.10294C19.0295 9.55794 19.2903 10.1878 19.2903 10.8311V10.9242ZM24.8937 5.19119L24.6153 5.26081C23.6013 5.5141 22.5273 5.5141 21.5137 5.26081L20.6499 5.04484L20.4469 5.85797L21.3108 6.07394C21.884 6.21735 22.4741 6.29032 23.0645 6.29032C23.4654 6.29032 23.8659 6.25384 24.2614 6.18758C24.1813 6.41026 24.0244 6.59981 23.8043 6.70968L23.7158 6.75371C23.2247 6.99903 22.6749 7.12903 22.1268 7.12903H21.9058C21.3573 7.12903 20.808 6.99903 20.3169 6.75371L19.9416 7.50393C20.5488 7.80755 21.2277 7.96774 21.9054 7.96774H22.1264C22.2677 7.96774 22.4086 7.95684 22.5491 7.943C22.4615 8.13045 22.3202 8.29023 22.1264 8.3871C21.5775 8.66136 20.9635 8.80645 20.3505 8.80645H19.4262C19.3453 8.70329 19.2605 8.60306 19.1675 8.50997C18.5565 7.89897 17.7102 7.54839 16.8463 7.54839H15.9355C15.6122 7.54839 15.3127 7.64442 15.0565 7.80335C15.0725 7.00406 15.0829 6.20561 15.0888 5.40842C15.8449 5.26458 16.4936 4.73745 16.77 4.00148L16.8128 3.88784C17.2145 2.81681 18.2528 2.09677 19.3973 2.09677C20.0414 2.09677 20.6692 2.32406 21.1644 2.73671L21.3393 2.88265C22.3495 3.72429 23.569 4.28371 24.8656 4.49926C25.0367 4.52819 25.1613 4.67497 25.1613 4.84816C25.1613 5.01045 25.051 5.15135 24.8937 5.19119Z" fill="#FAFAFA"/>
</svg>
