<svg width="24" height="20" viewBox="0 0 24 24" fill="none" xmlns="http://www.w3.org/2000/svg">
<g clip-path="url(#clip0_4855_15873)">
<path d="M24 21.6C24 22.9241 22.925 24 21.5846 24H2.41536C1.07504 24 0 22.9241 0 21.6V2.4C0 1.07586 1.07504 0 2.41536 0H21.5846C22.925 0 24 1.07586 24 2.4V21.6Z" fill="white"/>
<path d="M7.80438 5.8616C7.80438 6.74436 7.14819 7.4616 6.05918 7.4616C5.03999 7.4616 4.38379 6.74436 4.38379 5.8616C4.38379 4.96505 5.06791 4.27539 6.11503 4.27539C7.16215 4.27539 7.79042 4.96505 7.80438 5.8616ZM4.46756 18.9788V8.71677H7.70665V18.9788H4.46756Z" fill="#56A0BB"/>
<path d="M9.63357 11.9995C9.63357 10.7168 9.59169 9.65471 9.5498 8.73058H12.3561L12.5097 10.1513H12.5655C12.9844 9.4754 14.0315 8.49609 15.7767 8.49609C17.8988 8.49609 19.4905 9.90299 19.4905 12.9237V18.9926H16.2653V13.2961C16.2653 11.972 15.8046 11.0754 14.6318 11.0754C13.7383 11.0754 13.2077 11.6823 12.9704 12.2754C12.8866 12.5375 12.8447 12.7995 12.8587 13.0754V18.9926H9.63357V11.9995Z" fill="#56A0BB"/>
</g>
<defs>
<clipPath id="clip0_4855_15873">
<rect width="24" height="24" fill="white"/>
</clipPath>
</defs>
</svg>
