<svg width="44" height="44" viewBox="0 0 44 44" fill="none" xmlns="http://www.w3.org/2000/svg">
<path d="M21.4607 16C24.5428 16 27.1112 18.4571 27.1112 21.6L27.2254 37.4857C27.2254 40.5714 24.7711 43.1429 21.6319 43.1429C18.4927 43.1429 15.9813 40.6857 15.9813 37.5429L15.8672 21.6571C15.8672 18.5714 18.3785 16.0571 21.4607 16Z" fill="white"/>
<path d="M27.1683 21.4857C27.1683 24.5715 24.714 27.1429 21.5748 27.1429L5.65055 27.2572C2.56843 27.2572 0 24.8 0 21.6572C0 18.5715 2.45428 16 5.59348 16L21.5178 15.8857C24.5999 15.8857 27.1683 18.3429 27.1683 21.4857Z" fill="white"/>
<path d="M21.3465 0C21.2894 0 21.2894 0 21.2324 0C18.1502 0.0571429 15.6389 2.62857 15.696 5.71429L15.8672 15.9429L21.4607 15.8857H21.5177C21.8602 15.8857 22.2597 15.9429 22.6022 16L27.1683 15.9429L26.9971 5.54286C26.94 2.45714 24.4286 0 21.3465 0Z" fill="#C7DADE"/>
<path d="M37.4992 15.7715C37.4421 15.7715 37.4421 15.7715 37.385 15.7715L27.1113 15.9429L22.5452 16.0001C25.1136 16.5143 27.1113 18.7429 27.1113 21.4858C27.1113 21.6572 27.1113 21.7715 27.1113 21.9429L27.1683 27.2001L37.5562 27.0286C40.6384 26.9715 43.1497 24.4001 43.0926 21.3143C43.0926 18.2286 40.5813 15.7715 37.4992 15.7715Z" fill="#C7DADE"/>
</svg>
