<svg width="18" height="18" viewBox="0 0 18 18" fill="none" xmlns="http://www.w3.org/2000/svg">
<path opacity="0.3" d="M4.545 13.7437L7.35 10.9388L8.85563 12.4237L10.65 10.155L13.5169 13.7437H4.545ZM5.7 7.14375C5.30125 7.14375 4.96094 7.00281 4.67906 6.72094C4.39719 6.43906 4.25625 6.09875 4.25625 5.7C4.25625 5.30125 4.39719 4.96094 4.67906 4.67906C4.96094 4.39719 5.30125 4.25625 5.7 4.25625C6.09875 4.25625 6.43906 4.39719 6.72094 4.67906C7.00281 4.96094 7.14375 5.30125 7.14375 5.7C7.14375 6.09875 7.00281 6.43906 6.72094 6.72094C6.43906 7.00281 6.09875 7.14375 5.7 7.14375ZM3.225 17.25C2.5375 17.25 1.95312 17.0094 1.47188 16.5281C0.990625 16.0469 0.75 15.4625 0.75 14.775V3.225C0.75 2.5375 0.990625 1.95312 1.47188 1.47188C1.95312 0.990625 2.5375 0.75 3.225 0.75H14.775C15.4625 0.75 16.0469 0.990625 16.5281 1.47188C17.0094 1.95312 17.25 2.5375 17.25 3.225V14.775C17.25 15.4625 17.0094 16.0469 16.5281 16.5281C16.0469 17.0094 15.4625 17.25 14.775 17.25H3.225ZM3.225 16.0125H14.775C15.1325 16.0125 15.4281 15.8922 15.6619 15.6516C15.8956 15.4109 16.0125 15.1187 16.0125 14.775V3.225C16.0125 2.8675 15.8956 2.57187 15.6619 2.33812C15.4281 2.10437 15.1325 1.9875 14.775 1.9875H3.225C2.88125 1.9875 2.58906 2.10437 2.34844 2.33812C2.10781 2.57187 1.9875 2.8675 1.9875 3.225V14.775C1.9875 15.1187 2.10781 15.4109 2.34844 15.6516C2.58906 15.8922 2.88125 16.0125 3.225 16.0125Z" fill="black"/>
</svg>
