<svg width="14" height="13" viewBox="0 0 14 13" fill="none" xmlns="http://www.w3.org/2000/svg">
<path d="M7 13L6.2825 12.3438C4.38083 10.5821 2.85833 9.04502 1.715 7.73261C0.571667 6.42019 0 5.09004 0 3.74216C0 2.67804 0.352917 1.78831 1.05875 1.07299C1.76458 0.357662 2.63667 0 3.675 0C4.27 0 4.85917 0.144839 5.4425 0.434516C6.02583 0.724193 6.545 1.20009 7 1.86221C7.51333 1.20009 8.04417 0.724193 8.5925 0.434516C9.14083 0.144839 9.71833 0 10.325 0C11.3633 0 12.2354 0.357662 12.9412 1.07299C13.6471 1.78831 14 2.67804 14 3.74216C14 5.09004 13.4283 6.42019 12.285 7.73261C11.1417 9.04502 9.61917 10.5821 7.7175 12.3438L7 13ZM7 11.5989C8.77333 9.94361 10.2083 8.50705 11.305 7.28922C12.4017 6.0714 12.95 4.88904 12.95 3.74216C12.95 2.9618 12.7021 2.32037 12.2062 1.81787C11.7104 1.31537 11.0833 1.06412 10.325 1.06412C9.74167 1.06412 9.19333 1.24739 8.68 1.61392C8.16667 1.98045 7.74667 2.50659 7.42 3.19236H6.5625C6.2475 2.50659 5.83042 1.98045 5.31125 1.61392C4.79208 1.24739 4.24667 1.06412 3.675 1.06412C2.905 1.06412 2.275 1.31537 1.785 1.81787C1.295 2.32037 1.05 2.9618 1.05 3.74216C1.05 4.88904 1.59833 6.0714 2.695 7.28922C3.79167 8.50705 5.22667 9.94361 7 11.5989Z" fill="#6F7782"/>
</svg>
