<svg width="19" height="21" viewBox="0 0 19 21" fill="none" xmlns="http://www.w3.org/2000/svg">
<path d="M0.246094 11.2684C0.246094 16.2957 4.38574 20.4354 9.41309 20.4354C14.4404 20.4354 18.5801 16.2957 18.5801 11.2684C18.5801 8.50863 17.2178 5.78402 15.1699 4.21077C14.6338 3.77132 14.0098 3.82405 13.6758 4.2723C13.2979 4.74691 13.4473 5.32698 13.8955 5.74007C15.5303 7.05843 16.5586 9.01839 16.5674 11.2684C16.5762 15.2323 13.377 18.4227 9.41309 18.4227C5.44922 18.4227 2.26758 15.2323 2.26758 11.2684C2.26758 7.95491 4.48242 5.19515 7.52344 4.38655V5.6346C7.52344 6.33773 8.07715 6.53988 8.65723 6.118L11.7246 3.92073C12.1992 3.58675 12.1992 3.05062 11.7246 2.70784L8.66602 0.510578C8.07715 0.0887031 7.52344 0.282062 7.52344 0.993977V2.30355C3.39258 3.18245 0.246094 6.89144 0.246094 11.2684ZM6.95215 14.995C7.37402 14.995 7.64648 14.7137 7.64648 14.2567V8.87777C7.64648 8.30648 7.33008 7.99886 6.82031 7.99886C6.52148 7.99886 6.28418 8.09554 5.92383 8.37679L4.84277 9.18538C4.58789 9.40511 4.47363 9.58968 4.47363 9.84456C4.47363 10.1785 4.7373 10.4598 5.0625 10.4598C5.28223 10.4598 5.41406 10.3983 5.58105 10.2137L6.25781 9.64241H6.2666V14.2567C6.2666 14.7137 6.53906 14.995 6.95215 14.995ZM11.3291 15.0741C12.8232 15.0741 13.79 14.116 13.79 12.6395C13.79 11.3123 12.9023 10.4422 11.7334 10.4422C11.1797 10.4422 10.6348 10.6971 10.3887 11.119L10.5205 9.30843H12.9727C13.3242 9.30843 13.5791 9.05355 13.5791 8.6932C13.5791 8.33284 13.3242 8.09554 12.9727 8.09554H10.1953C9.69434 8.09554 9.41309 8.40316 9.37793 8.93929L9.20215 11.4266C9.16699 11.9188 9.43945 12.1825 9.87891 12.1825C10.2305 12.1825 10.3535 12.1121 10.5732 11.9364C10.8721 11.6815 11.1182 11.5496 11.4434 11.5496C12.0762 11.5496 12.4717 12.0155 12.4717 12.6746C12.4717 13.3514 12.0059 13.8612 11.373 13.8612C10.8809 13.8612 10.5117 13.5799 10.2744 13.1932C10.1426 12.9823 9.98438 12.8592 9.72949 12.8592C9.37793 12.8592 9.13184 13.1053 9.13184 13.4569C9.13184 13.5975 9.1582 13.7205 9.21973 13.87C9.45703 14.4588 10.2393 15.0741 11.3291 15.0741Z" fill="#6F7782"/>
</svg>
