<svg width="19" height="21" viewBox="0 0 19 21" fill="none" xmlns="http://www.w3.org/2000/svg">
<path d="M9.7373 20.4637C14.7734 20.4637 18.9219 16.3153 18.9219 11.2791C18.9219 6.89338 15.7842 3.1844 11.6445 2.2967V0.969553C11.6445 0.257639 11.0908 0.0554905 10.4932 0.486155L7.39941 2.701C6.91602 3.05256 6.9248 3.59748 7.39941 3.94026L10.4844 6.16389C11.082 6.59455 11.6445 6.40119 11.6445 5.68049V4.41487C14.6592 5.24104 16.8564 7.99201 16.8564 11.2791C16.8564 15.2254 13.6836 18.4071 9.7373 18.4071C5.79102 18.4071 2.60938 15.2254 2.61816 11.2791C2.62695 9.05549 3.6377 7.11311 5.24609 5.80354C5.70312 5.37287 5.85254 4.77522 5.46582 4.29182C5.11426 3.84358 4.47266 3.78205 3.92773 4.24787C1.89746 5.80354 0.552734 8.53694 0.552734 11.2791C0.552734 16.3153 4.70117 20.4637 9.7373 20.4637ZM7.29395 15.0233C7.72461 15.0233 7.99707 14.7332 7.99707 14.2762V8.90608C7.99707 8.31721 7.67188 8.00959 7.16211 8.00959C6.85449 8.00959 6.6084 8.10627 6.24805 8.39631L5.16699 9.2049C4.91211 9.42463 4.79785 9.61799 4.79785 9.87287C4.79785 10.2156 5.06152 10.4881 5.39551 10.4881C5.61523 10.4881 5.74707 10.4354 5.92285 10.242L6.59082 9.67072H6.59961V14.2762C6.59961 14.7332 6.87207 15.0233 7.29395 15.0233ZM11.6621 15.0936C13.1562 15.0936 14.1318 14.1356 14.1318 12.6502C14.1318 11.3231 13.2354 10.453 12.0752 10.453C11.5215 10.453 10.9766 10.7166 10.7305 11.1385L10.8623 9.32795H13.3057C13.6572 9.32795 13.9121 9.07307 13.9121 8.70393C13.9121 8.33479 13.6572 8.09748 13.3057 8.09748H10.5195C10.0186 8.09748 9.72852 8.4051 9.69336 8.95881L9.52637 11.4461C9.49121 11.9383 9.76367 12.2108 10.2119 12.2108C10.5635 12.2108 10.6865 12.1317 10.9062 11.9559C11.1963 11.7098 11.4424 11.578 11.7764 11.578C12.4004 11.578 12.7871 12.035 12.7871 12.6942C12.7871 13.3621 12.3301 13.8631 11.6973 13.8631C11.2139 13.8631 10.8447 13.5819 10.6162 13.1951C10.4844 12.993 10.3262 12.8699 10.0625 12.8699C9.71094 12.8699 9.46484 13.1248 9.46484 13.4852C9.46484 13.617 9.48242 13.7488 9.55273 13.8895C9.79004 14.4783 10.5723 15.0936 11.6621 15.0936Z" fill="#6F7782"/>
</svg>
