<svg width="24" height="26" viewBox="0 0 24 26" fill="none" xmlns="http://www.w3.org/2000/svg">
<path d="M4.89111 1.69482H19.1089C19.0303 0.695312 18.4463 0.15625 17.3682 0.15625H6.62061C5.55371 0.15625 4.9585 0.695312 4.89111 1.69482ZM2.6001 4.9292H21.3999C21.2427 3.8623 20.7036 3.25586 19.5132 3.25586H4.48682C3.29639 3.25586 2.75732 3.8623 2.6001 4.9292ZM3.81299 25.6045H20.1758C22.5903 25.6045 23.8594 24.3467 23.8594 21.9546V10.4097C23.8594 8.00635 22.5903 6.75977 20.1758 6.75977H3.81299C1.38721 6.75977 0.129395 8.00635 0.129395 10.4097V21.9546C0.129395 24.3579 1.38721 25.6045 3.81299 25.6045ZM3.94775 23.4033C2.90332 23.4033 2.33057 22.853 2.33057 21.7637V10.5894C2.33057 9.5 2.90332 8.96094 3.94775 8.96094H20.041C21.0742 8.96094 21.6582 9.5 21.6582 10.5894V21.7637C21.6582 22.853 21.0742 23.4033 20.041 23.4033H3.94775ZM17.0312 16.3506C18.4912 16.3506 19.6816 15.1714 19.6816 13.7002C19.6816 12.229 18.4912 11.0386 17.0312 11.0386C15.5601 11.0386 14.3696 12.229 14.3696 13.7002C14.3696 15.1714 15.5601 16.3506 17.0312 16.3506ZM5.17188 13.1836H11.9102C12.3594 13.1836 12.7075 12.8018 12.7075 12.3638C12.7075 11.9146 12.3594 11.5552 11.9102 11.5552H5.17188C4.7002 11.5552 4.37451 11.9258 4.37451 12.3638C4.37451 12.813 4.71143 13.1836 5.17188 13.1836ZM5.17188 16.0923H9.95605C10.4053 16.0923 10.7646 15.7441 10.7646 15.2949C10.7646 14.8457 10.4053 14.4751 9.95605 14.4751H5.17188C4.7002 14.4751 4.37451 14.8457 4.37451 15.2949C4.37451 15.7441 4.71143 16.0923 5.17188 16.0923Z"/>
</svg>
