<svg width="68" height="48" viewBox="0 0 68 48" fill="none" xmlns="http://www.w3.org/2000/svg">
<path d="M52.4253 47.2266C54.5048 47.2266 56.4475 46.8617 58.2534 46.1321C60.0775 45.4207 61.6736 44.4357 63.0417 43.177C64.4281 41.9001 65.5043 40.4226 66.2704 38.7444C67.0548 37.0662 67.447 35.2603 67.447 33.3267C67.447 31.4479 67.1095 29.6694 66.4346 27.9912C65.7597 26.313 64.7929 24.8263 63.5342 23.5312C62.2938 22.2178 60.798 21.1963 59.0469 20.4667C59.0469 17.4751 58.5453 14.7389 57.542 12.2581C56.5387 9.75906 55.1433 7.59748 53.3556 5.77335C51.568 3.93099 49.4702 2.50817 47.0624 1.5049C44.6728 0.501634 42.0825 0 39.2916 0C37.048 0 34.9593 0.346584 33.0258 1.03975C31.1104 1.73292 29.3684 2.69058 27.7996 3.91275C26.2491 5.13491 24.8993 6.56685 23.7501 8.20856C22.0537 7.78901 20.3846 7.76165 18.7429 8.12647C17.1194 8.4913 15.6419 9.17534 14.3103 10.1786C12.9969 11.1636 11.9206 12.404 11.0816 13.8998C10.2607 15.3774 9.80467 17.0373 9.71346 18.8797C7.70692 19.281 5.97401 20.1201 4.51471 21.397C3.07365 22.6556 1.96093 24.2152 1.17656 26.0758C0.392187 27.9365 0 29.9704 0 32.1775C0 34.2388 0.419548 36.1815 1.25865 38.0056C2.09774 39.8115 3.26518 41.4076 4.76096 42.7939C6.25674 44.162 7.99878 45.2383 9.98708 46.0226C11.9936 46.807 14.1552 47.1992 16.4718 47.1992L52.4253 47.2266ZM52.4253 40.906L16.4992 40.8786C14.5839 40.8786 12.8692 40.4864 11.3552 39.7021C9.84115 38.8994 8.64635 37.8414 7.77077 36.5281C6.89519 35.1965 6.4574 33.7463 6.4574 32.1775C6.4574 30.4811 6.79486 28.9853 7.46979 27.6902C8.16295 26.3768 9.12974 25.3553 10.3701 24.6257C11.6105 23.8778 13.079 23.5038 14.7754 23.5038C15.1585 23.5038 15.3409 23.3032 15.3226 22.9019C15.195 20.4393 15.6236 18.4784 16.6086 17.0191C17.6119 15.5415 18.9526 14.5839 20.6308 14.1461C22.309 13.7083 24.124 13.7813 26.0758 14.365C26.4224 14.4562 26.6687 14.365 26.8146 14.0914C27.6902 12.5773 28.6935 11.2366 29.8244 10.0692C30.9736 8.90172 32.3144 7.98054 33.8466 7.30562C35.3971 6.63069 37.1848 6.29323 39.2095 6.29323C41.7998 6.29323 44.1073 6.91343 46.1321 8.15383C48.1751 9.376 49.7986 11.0086 51.0025 13.0516C52.2064 15.0764 52.8722 17.3201 52.9999 19.7826C53.0546 20.567 53.0546 21.3605 52.9999 22.1631C52.9452 22.9475 52.8905 23.668 52.8357 24.3247C52.7993 24.6895 52.9543 24.8993 53.3009 24.954C55.654 25.3371 57.5237 26.2765 58.9101 27.7723C60.2964 29.2498 60.9896 31.1013 60.9896 33.3267C60.9896 34.7131 60.6065 35.9808 59.8404 37.13C59.0925 38.2792 58.071 39.2004 56.7759 39.8936C55.4807 40.5685 54.0305 40.906 52.4253 40.906ZM24.8993 26.4042C24.8993 28.283 25.3553 29.9977 26.2674 31.5482C27.1794 33.0987 28.3925 34.33 29.9065 35.2421C31.4388 36.1541 33.1443 36.6102 35.0232 36.6102C36.8838 36.6102 38.5711 36.1541 40.0851 35.2421C41.6174 34.33 42.8395 33.1078 43.7516 31.5756C44.6637 30.0433 45.1197 28.3378 45.1197 26.4589C45.1197 25.9299 44.9282 25.483 44.5451 25.1182C44.1803 24.7351 43.7334 24.5436 43.2044 24.5436C42.6754 24.5436 42.2193 24.7351 41.8363 25.1182C41.4715 25.483 41.289 25.9299 41.289 26.4589C41.289 27.6264 41.0063 28.6843 40.4408 29.6329C39.8753 30.5814 39.1183 31.3384 38.1698 31.9039C37.2212 32.4694 36.1724 32.7521 35.0232 32.7521C33.8557 32.7521 32.7977 32.4694 31.8492 31.9039C30.9007 31.3384 30.1436 30.5814 29.5782 29.6329C29.0309 28.6843 28.7573 27.6264 28.7573 26.4589C28.7573 25.4192 28.9853 24.4615 29.4414 23.5859C29.8974 22.7103 30.5176 21.9989 31.302 21.4517C32.1046 20.8862 32.9893 20.567 33.9561 20.494C34.0838 20.4758 34.2023 20.4575 34.3118 20.4393C34.4212 20.4211 34.5307 20.4119 34.6401 20.4119L33.272 21.8348C33.0531 22.1266 32.9437 22.4641 32.9437 22.8472C32.9437 23.3761 33.1078 23.8048 33.4362 24.1332C33.7828 24.4433 34.2023 24.5983 34.6948 24.5983C35.1873 24.5983 35.6069 24.425 35.9535 24.0784L40.1125 19.9194C40.4591 19.5728 40.6324 19.1442 40.6324 18.6334C40.6324 18.1044 40.4682 17.6758 40.1398 17.3474L36.0082 13.1611C35.844 12.9786 35.6434 12.8327 35.4062 12.7233C35.1873 12.5956 34.9411 12.5317 34.6675 12.5317C34.1202 12.5317 33.6824 12.705 33.3541 13.0516C33.044 13.3982 32.889 13.7904 32.889 14.2282C32.889 14.4835 32.9346 14.7116 33.0258 14.9122C33.1352 15.1129 33.2538 15.2862 33.3815 15.4321L34.3939 16.4992C34.3209 16.4992 34.2388 16.4992 34.1476 16.4992C34.0564 16.4992 33.9652 16.4992 33.874 16.4992C32.2687 16.6269 30.7821 17.1468 29.414 18.0588C28.0459 18.9709 26.9514 20.1566 26.1306 21.6159C25.3097 23.0569 24.8993 24.653 24.8993 26.4042Z" fill="#56A0BB"/>
</svg>
