<svg width="26" height="25" viewBox="0 0 26 25" fill="none" xmlns="http://www.w3.org/2000/svg">
<path d="M13 24.6445C19.6211 24.6445 25.1055 19.1719 25.1055 12.5391C25.1055 5.91797 19.6211 0.433594 12.9883 0.433594C6.36719 0.433594 0.894531 5.91797 0.894531 12.5391C0.894531 19.1719 6.37891 24.6445 13 24.6445ZM13 22.2656C7.60938 22.2656 3.28516 17.9297 3.28516 12.5391C3.28516 7.14844 7.59766 2.82422 12.9883 2.82422C18.3789 2.82422 22.7266 7.14844 22.7266 12.5391C22.7266 17.9297 18.3906 22.2656 13 22.2656ZM12.9883 12.1289C14.6406 12.1406 15.9648 10.7461 15.9648 8.88281C15.9648 7.14844 14.6406 5.70703 12.9883 5.70703C11.3477 5.70703 10.0117 7.14844 10.0117 8.88281C10.0117 10.7461 11.3477 12.1289 12.9883 12.1289ZM7.80859 18.3984H18.1797C18.6836 18.3984 18.9414 18.0469 18.9414 17.5898C18.9414 16.3242 17.0547 13.0547 12.9883 13.0547C8.92188 13.0547 7.04688 16.3242 7.04688 17.5898C7.04688 18.0469 7.29297 18.3984 7.80859 18.3984Z" fill="#56A0BB"/>
</svg>
