<svg width="36" height="61" viewBox="0 0 36 61" fill="none" xmlns="http://www.w3.org/2000/svg">
<path d="M0 53.4578C0 57.9484 3.05369 60.9422 7.62025 60.9422H28.3798C32.9464 60.9422 36 57.9484 36 53.4578V7.48464C36 2.99384 32.9464 0 28.3798 0H7.62025C3.05369 0 0 2.99384 0 7.48464V53.4578ZM4.51053 52.7093V8.23312C4.51053 5.93015 5.82725 4.63474 8.20858 4.63474H27.8195C30.1729 4.63474 31.4897 5.93015 31.4897 8.23312V52.7093C31.4897 55.0121 30.1729 56.3077 27.8195 56.3077H8.20858C5.82725 56.3077 4.51053 55.0121 4.51053 52.7093Z" fill="#5AAF3C"/>
<path d="M10.535 33.9405C10.535 34.3435 10.619 34.7465 10.8992 35.0345L16.8385 41.0795C17.1747 41.425 17.5949 41.6266 18.0152 41.6266C18.4074 41.6266 18.8276 41.425 19.1638 41.0795L25.1031 35.0345C25.3833 34.7465 25.4953 34.3435 25.4953 33.9405C25.4953 33.0193 24.879 32.4148 24.0105 32.4148C23.5623 32.3859 23.2261 32.5875 22.9179 32.8752L20.9568 34.8903L19.416 36.8768L19.528 33.1921V25.074C19.528 24.1816 18.9117 23.5195 18.0152 23.5195C17.1187 23.5195 16.4743 24.1816 16.4743 25.074V33.1921L16.6144 36.8768L15.0735 34.8903L13.0844 32.8752C12.7762 32.5875 12.4401 32.3859 11.9918 32.4148C11.1514 32.4148 10.535 33.0193 10.535 33.9405ZM10.591 52.652H25.4393C26.9242 52.652 27.9327 51.6158 27.9327 50.0326V46.6066C27.9327 44.9948 26.9242 43.9872 25.4393 43.9872H10.591C9.07818 43.9872 8.09766 44.9948 8.09766 46.6066V50.0326C8.09766 51.6158 9.07818 52.652 10.591 52.652Z" fill="#5AAF3C"/>
</svg>
