<svg width="22" height="19" viewBox="0 0 22 19" fill="none" xmlns="http://www.w3.org/2000/svg">
<path opacity="0.3" d="M12.7277 18.8817C13.9988 18.8817 15.1925 18.6354 16.3088 18.1426C17.4251 17.6499 18.4092 16.9699 19.2609 16.1027C20.1126 15.2355 20.7805 14.2336 21.2644 13.097C21.7548 11.9538 22 10.7351 22 9.44087C22 8.15318 21.7548 6.94104 21.2644 5.80446C20.7805 4.66131 20.1094 3.65612 19.2512 2.7889C18.3995 1.91511 17.4155 1.23185 16.2992 0.739108C15.1829 0.246369 13.9891 0 12.718 0C11.5243 0 10.3983 0.22009 9.34008 0.66027C8.28186 1.09388 7.33656 1.69831 6.50418 2.47355C5.6718 3.24879 4.99105 4.15214 4.46195 5.18361C3.93929 6.20851 3.62311 7.31553 3.51342 8.50467C3.71345 8.46525 3.94574 8.43897 4.2103 8.42583C4.4813 8.40612 4.7265 8.41269 4.94589 8.44554C5.06203 7.45349 5.33949 6.53371 5.77827 5.6862C6.22349 4.83212 6.79455 4.08973 7.49142 3.45903C8.1883 2.82175 8.98196 2.32573 9.87242 1.97095C10.7629 1.61618 11.7114 1.4388 12.718 1.4388C13.8085 1.4388 14.828 1.64575 15.7765 2.05965C16.7315 2.47355 17.5671 3.04841 18.2833 3.78423C19.006 4.51349 19.5706 5.36428 19.9771 6.33662C20.3836 7.30239 20.5869 8.33714 20.5869 9.44087C20.5869 10.4855 20.4062 11.4677 20.0449 12.3874C19.6835 13.3072 19.1835 14.1219 18.5447 14.8314C18.2607 14.457 17.8413 14.0989 17.2864 13.7573C16.7315 13.4156 16.0669 13.1364 15.2926 12.9196C14.5183 12.7028 13.6601 12.5944 12.718 12.5944C12.2663 12.5944 11.8308 12.624 11.4114 12.6831C10.9984 12.7357 10.6048 12.8112 10.2305 12.9098C10.3467 13.3499 10.4048 13.8131 10.4048 14.2993C10.4048 15.0088 10.2822 15.6855 10.037 16.3294C9.79176 16.9732 9.45623 17.5546 9.03036 18.0737C9.59818 18.3299 10.1918 18.527 10.8113 18.6649C11.4307 18.8095 12.0695 18.8817 12.7277 18.8817ZM12.718 11.0078C13.3052 11.0143 13.8343 10.8632 14.3053 10.5545C14.7764 10.2457 15.1506 9.82521 15.4281 9.29305C15.7055 8.76089 15.8443 8.15975 15.8443 7.48963C15.8443 6.87206 15.7055 6.30377 15.4281 5.78475C15.1506 5.25916 14.7764 4.84198 14.3053 4.5332C13.8343 4.21784 13.3052 4.06017 12.718 4.06017C12.1308 4.06017 11.6017 4.21784 11.1307 4.5332C10.6596 4.84198 10.2822 5.25916 9.99824 5.78475C9.72078 6.30377 9.58528 6.87206 9.59173 7.48963C9.59173 8.15975 9.73046 8.75761 10.0079 9.2832C10.2918 9.80878 10.6661 10.226 11.1307 10.5348C11.6017 10.8435 12.1308 11.0012 12.718 11.0078ZM4.61681 19C5.23625 19 5.82343 18.8752 6.37836 18.6255C6.93327 18.3824 7.42367 18.0441 7.84954 17.6105C8.27541 17.1769 8.60771 16.6776 8.84646 16.1126C9.09166 15.5475 9.21425 14.9431 9.21425 14.2993C9.21425 13.4452 9.00455 12.6634 8.58513 11.9538C8.17217 11.2443 7.61402 10.676 6.91069 10.249C6.21381 9.82192 5.44919 9.6084 4.61681 9.6084C3.77152 9.6084 3.00044 9.82192 2.30356 10.249C1.60669 10.676 1.04854 11.2443 0.629125 11.9538C0.209708 12.6634 0 13.4452 0 14.2993C0 14.9497 0.119372 15.5574 0.358117 16.1224C0.596862 16.6874 0.929169 17.1867 1.35504 17.6203C1.78091 18.0539 2.2713 18.3923 2.82622 18.6354C3.38114 18.8785 3.978 19 4.61681 19ZM4.60713 17.2557C4.44581 17.2557 4.31676 17.2064 4.21997 17.1079C4.12319 17.0093 4.07479 16.8779 4.07479 16.7137V14.8413H2.23581C2.08095 14.8413 1.9519 14.792 1.84866 14.6935C1.75187 14.5949 1.70348 14.4635 1.70348 14.2993C1.70348 14.135 1.75187 14.0036 1.84866 13.9051C1.9519 13.8065 2.08095 13.7573 2.23581 13.7573H4.07479V11.8947C4.07479 11.7305 4.12319 11.5991 4.21997 11.5005C4.31676 11.402 4.44581 11.3527 4.60713 11.3527C4.76844 11.3527 4.89749 11.402 4.99428 11.5005C5.09107 11.5991 5.13946 11.7305 5.13946 11.8947V13.7573H6.96876C7.13008 13.7573 7.25913 13.8065 7.35592 13.9051C7.45271 14.0036 7.5011 14.135 7.5011 14.2993C7.5011 14.4635 7.45271 14.5949 7.35592 14.6935C7.25913 14.792 7.13008 14.8413 6.96876 14.8413H5.13946V16.7137C5.13946 16.8779 5.09107 17.0093 4.99428 17.1079C4.89749 17.2064 4.76844 17.2557 4.60713 17.2557Z" fill="black"/>
</svg>
