<svg width="20" height="25" viewBox="0 0 20 25" fill="none" xmlns="http://www.w3.org/2000/svg">
<path d="M9.99998 24.9457C10.1925 24.9457 10.5054 24.8735 10.8062 24.705C17.6534 20.8663 20 19.2417 20 14.8495V5.6437C20 4.38017 19.4584 3.98305 18.4355 3.54984C17.0156 2.96019 12.4308 1.31158 11.0108 0.8182C10.6859 0.709898 10.3369 0.637695 9.99998 0.637695C9.66304 0.637695 9.31406 0.733965 9.00119 0.8182C7.58121 1.22735 2.98436 2.97223 1.56438 3.54984C0.553549 3.97103 0 4.38017 0 5.6437V14.8495C0 19.2417 2.3586 20.8542 9.19373 24.705C9.5066 24.8735 9.80744 24.9457 9.99998 24.9457ZM9.99998 22.7677C9.80744 22.7677 9.6149 22.6955 9.2539 22.4788C3.69434 19.1094 1.91335 18.1226 1.91335 14.4043V6.01674C1.91335 5.6076 1.98556 5.45117 2.3225 5.3188C4.15162 4.59677 7.70155 3.40544 9.51863 2.68341C9.71117 2.59919 9.86761 2.57511 9.99998 2.57511C10.1324 2.57511 10.2888 2.61122 10.4813 2.68341C12.2984 3.40544 15.8243 4.68101 17.6895 5.3188C18.0144 5.43913 18.0866 5.6076 18.0866 6.01674V14.4043C18.0866 18.1226 16.3056 19.0973 10.7461 22.4788C10.3971 22.6955 10.1925 22.7677 9.99998 22.7677Z" fill="#5AAF3C"/>
<path d="M8.68898 17.9181C9.08609 17.9181 9.42303 17.7257 9.66371 17.3646L15.1631 8.70037C15.3075 8.47173 15.4519 8.20699 15.4519 7.93022C15.4519 7.40073 14.9705 7.05176 14.4771 7.05176C14.1642 7.05176 13.8635 7.23226 13.6349 7.59327L8.64085 15.6077L6.27021 12.5391C5.98141 12.154 5.71666 12.0457 5.39175 12.0457C4.86227 12.0457 4.45312 12.4669 4.45312 13.0084C4.45312 13.2611 4.56143 13.5259 4.7299 13.7545L7.66611 17.3646C7.96695 17.7618 8.29187 17.9181 8.68898 17.9181Z" fill="#5AAF3C"/>
</svg>
