<svg width="26" height="24" viewBox="0 0 24 24" fill="none" xmlns="http://www.w3.org/2000/svg">
<path d="M10.7438 14.3867C10.7438 13.8564 10.876 13.3978 11.1405 13.0111C11.416 12.6243 11.8182 12.1768 12.3471 11.6685C12.8099 11.2155 13.146 10.8453 13.3554 10.558C13.5758 10.2597 13.686 9.92265 13.686 9.54696C13.686 9.10497 13.5372 8.75691 13.2397 8.50276C12.9532 8.23757 12.5565 8.10497 12.0496 8.10497C11.4105 8.10497 10.9587 8.30939 10.6942 8.71823C10.4408 9.11602 10.314 9.55801 10.314 10.0442V10.0773H8V10.0276C8 9.20995 8.16529 8.49724 8.49587 7.8895C8.83747 7.28177 9.3168 6.81768 9.93388 6.49724C10.551 6.16575 11.2617 6 12.0661 6C12.8485 6 13.5372 6.14917 14.1322 6.44751C14.7273 6.73481 15.1846 7.13812 15.5041 7.65746C15.8347 8.16575 16 8.75138 16 9.41437C16 9.87845 15.9174 10.2983 15.7521 10.674C15.5868 11.0387 15.3884 11.3481 15.157 11.6022C14.9366 11.8564 14.6391 12.1547 14.2645 12.4972C13.8457 12.884 13.5317 13.2099 13.3223 13.4751C13.124 13.7403 13.0248 14.0442 13.0248 14.3867V14.5359H10.7438V14.3867ZM11.9008 18C11.5482 18 11.2562 17.8785 11.0248 17.6354C10.7934 17.3923 10.6777 17.0994 10.6777 16.7569C10.6777 16.4144 10.7934 16.1215 11.0248 15.8785C11.2562 15.6354 11.5482 15.5138 11.9008 15.5138C12.2534 15.5138 12.5455 15.6354 12.7769 15.8785C13.0193 16.1215 13.1405 16.4144 13.1405 16.7569C13.1405 17.0994 13.0193 17.3923 12.7769 17.6354C12.5455 17.8785 12.2534 18 11.9008 18Z" fill="currentColor"/>
<rect x="1" y="1" width="22" height="21" rx="10" stroke="currentColor" stroke-width="2"/>
</svg>
