<svg width="52" height="52" viewBox="0 0 52 52" fill="none" xmlns="http://www.w3.org/2000/svg">
<circle cx="26" cy="26" r="26" fill="#56A0BB"/>
<path d="M26.2676 36.75C26.6191 36.75 26.9219 36.61 27.1758 36.3301C27.4297 36.0501 27.6478 35.6758 27.8301 35.207L34.2266 18.498C34.3112 18.2702 34.3763 18.0586 34.4219 17.8633C34.474 17.668 34.5 17.4857 34.5 17.3164C34.5 16.9974 34.4089 16.7467 34.2266 16.5645C34.0443 16.3822 33.7936 16.291 33.4746 16.291C33.3118 16.291 33.1296 16.3171 32.9277 16.3691C32.7324 16.4147 32.5208 16.4798 32.293 16.5645L15.4961 23C15.0859 23.1562 14.7409 23.3613 14.4609 23.6152C14.181 23.8691 14.041 24.1719 14.041 24.5234C14.041 24.9727 14.194 25.2982 14.5 25.5C14.806 25.6953 15.1934 25.8646 15.6621 26.0078L22.7129 28.0781L24.7637 35.041C24.9069 35.5293 25.0794 35.9362 25.2812 36.2617C25.4831 36.5872 25.8118 36.75 26.2676 36.75ZM23.1523 26.5938L16.4141 24.5332C16.3359 24.5137 16.2806 24.4909 16.248 24.4648C16.222 24.4388 16.209 24.4095 16.209 24.377C16.209 24.3444 16.222 24.3151 16.248 24.2891C16.2741 24.2565 16.3229 24.2272 16.3945 24.2012L29.5977 19.2012C29.9883 19.0514 30.3691 18.8887 30.7402 18.7129C31.1178 18.5306 31.4889 18.3548 31.8535 18.1855C31.528 18.446 31.1829 18.7259 30.8184 19.0254C30.4538 19.3249 30.138 19.6081 29.8711 19.875L23.1523 26.5938ZM26.4238 34.6016C26.3848 34.6016 26.3522 34.582 26.3262 34.543C26.3066 34.5104 26.2839 34.4551 26.2578 34.377L24.1973 27.6387L30.916 20.9199C31.1829 20.653 31.4661 20.334 31.7656 19.9629C32.0716 19.5918 32.3548 19.2402 32.6152 18.9082C32.446 19.2793 32.2702 19.6536 32.0879 20.0312C31.9056 20.4089 31.7396 20.7962 31.5898 21.1934L26.5898 34.3965C26.5638 34.4681 26.5378 34.5202 26.5117 34.5527C26.4857 34.5853 26.4564 34.6016 26.4238 34.6016Z" fill="white"/>
</svg>
