<svg width="27" height="14" viewBox="0 0 27 14" fill="none" xmlns="http://www.w3.org/2000/svg">
<g clip-path="url(#clip0_7019_92915)">
<path d="M1.71 8.37C1.71 7.21 6.91 1.54 13.35 1.54C19.79 1.54 24.98 7.2 24.98 8.37H26.69C26.69 6.37 21.23 0 13.35 0C5.47 0 0 6.37 0 8.37H1.71Z" fill="#CBCFD5"/>
<path d="M13.3516 13.8404C16.3916 13.8404 18.8316 11.3504 18.8316 8.37039C18.8316 5.39039 16.3916 2.90039 13.3516 2.90039C10.3116 2.90039 7.84159 5.31039 7.85159 8.37039C7.87159 11.3504 10.2916 13.8404 13.3516 13.8404Z" fill="#CBCFD5"/>
<path d="M13.3517 10.1898C12.3317 10.1898 11.5117 9.3698 11.5117 8.3698C11.5117 7.3698 12.3317 6.5498 13.3517 6.5498C14.3717 6.5498 15.1817 7.3598 15.1817 8.3698C15.1817 9.3798 14.3617 10.1898 13.3517 10.1898Z" fill="white"/>
</g>
<defs>
<clipPath id="clip0_7019_92915">
<rect width="26.69" height="13.84" fill="white"/>
</clipPath>
</defs>
</svg>
