<svg width="8" height="8" viewBox="0 0 8 8" fill="none" xmlns="http://www.w3.org/2000/svg">
<path d="M3.99793 8C6.18348 8 8 6.18667 8 3.99999C8 1.81333 6.18348 0 3.99386 0C1.8083 0 0 1.80923 0 3.99999C0 6.18667 1.81241 8 3.99793 8ZM3.99793 7.30255C2.16915 7.30255 0.701178 5.83383 0.701178 3.99999C0.701178 2.16205 2.16504 0.693332 3.99386 0.693332C5.82675 0.693332 7.29883 2.16205 7.3029 3.99999C7.30702 5.82975 5.83494 7.30255 3.99793 7.30255ZM3.99386 4.73845C4.19066 4.73845 4.30138 4.62767 4.3055 4.41435L4.36701 2.2482C4.37108 2.03897 4.20708 1.88307 3.98974 1.88307C3.76834 1.88307 3.61252 2.03487 3.61659 2.2441L3.66991 4.41435C3.67403 4.6236 3.78883 4.73845 3.99386 4.73845ZM3.99386 6.07177C4.22757 6.07177 4.4326 5.88306 4.4326 5.64512C4.4326 5.40717 4.23168 5.21846 3.99386 5.21846C3.75192 5.21846 3.551 5.41129 3.551 5.64512C3.551 5.87895 3.75603 6.07177 3.99386 6.07177Z" />
</svg>
