<svg width="14" height="14" viewBox="0 0 14 14" fill="none" xmlns="http://www.w3.org/2000/svg">
<path d="M2.68611 13.0049C2.94458 13.2027 3.27239 13.1347 3.66324 12.8565L6.99806 10.4521L10.3392 12.8565C10.73 13.1347 11.0515 13.2027 11.3163 13.0049C11.5747 12.8132 11.6315 12.498 11.4739 12.0468L10.1564 8.20223L13.5227 5.82871C13.9136 5.55674 14.0711 5.27242 13.9703 4.96337C13.8694 4.66668 13.5731 4.51833 13.0877 4.52451L8.9586 4.54924L7.70408 0.686091C7.55283 0.228698 7.32586 0 6.99806 0C6.67653 0 6.4496 0.228698 6.29831 0.686091L5.04381 4.54924L0.914684 4.52451C0.429278 4.51833 0.13299 4.66668 0.032126 4.96337C-0.0750422 5.27242 0.0888618 5.55674 0.47971 5.82871L3.84605 8.20223L2.52851 12.0468C2.37091 12.498 2.42765 12.8132 2.68611 13.0049Z" fill="#56A0BB"/>
</svg>
