<svg width="50" height="50" viewBox="0 0 50 50" fill="none" xmlns="http://www.w3.org/2000/svg">
<rect width="50" height="50" rx="25" fill="#FAFAFA"/>
<path d="M32.1987 24.8916C32.1987 25.2734 32.0527 25.5991 31.7495 25.8911L22.9897 34.46C22.7539 34.707 22.4395 34.8306 22.0801 34.8306C21.3501 34.8306 20.7773 34.269 20.7773 33.5278C20.7773 33.1685 20.9233 32.8428 21.1704 32.5957L29.0654 24.8916L21.1704 17.1875C20.9233 16.9292 20.7773 16.6035 20.7773 16.2441C20.7773 15.5142 21.3501 14.9526 22.0801 14.9526C22.4395 14.9526 22.7539 15.0762 22.9897 15.3232L31.7495 23.8921C32.0527 24.1841 32.1875 24.5098 32.1987 24.8916Z" />
</svg>
