<svg width="50" height="50" viewBox="0 0 50 50" fill="none" xmlns="http://www.w3.org/2000/svg">
<rect width="50" height="50" rx="25" fill="#FAFAFA"/>
<path d="M17.8013 24.8916C17.8013 25.2734 17.9473 25.5991 18.2505 25.8911L27.0103 34.46C27.2461 34.707 27.5605 34.8306 27.9199 34.8306C28.6499 34.8306 29.2227 34.269 29.2227 33.5278C29.2227 33.1685 29.0767 32.8428 28.8296 32.5957L20.9346 24.8916L28.8296 17.1875C29.0767 16.9292 29.2227 16.6035 29.2227 16.2441C29.2227 15.5142 28.6499 14.9526 27.9199 14.9526C27.5605 14.9526 27.2461 15.0762 27.0103 15.3232L18.2505 23.8921C17.9473 24.1841 17.8125 24.5098 17.8013 24.8916Z "/>
</svg>
