<svg width="22" height="14" viewBox="0 0 22 14" fill="#56A0BB" xmlns="http://www.w3.org/2000/svg">
    <path d="M3.56885 13.9048H12.1934C14.0527 13.9048 15.1069 12.8755 15.1069 11.0659V2.94775C15.1069 1.13818 14.1108 0.100586 12.2515 0.100586H3.56885C1.76758 0.100586 0.655273 1.13818 0.655273 2.94775V11.1489C0.655273 12.9585 1.70947 13.9048 3.56885 13.9048ZM16.377 9.8042L19.1079 12.1533C19.4897 12.4771 19.8716 12.6929 20.2451 12.6929C20.9424 12.6929 21.4238 12.1948 21.4238 11.4478V2.63232C21.4238 1.88525 20.9424 1.38721 20.2451 1.38721C19.8633 1.38721 19.4897 1.60303 19.1079 1.91846L16.377 4.26758V9.8042Z" fill="#56A0BB"/>
</svg>