<svg width="216" height="108" viewBox="0 0 216 108" fill="none" xmlns="http://www.w3.org/2000/svg">
<g clip-path="url(#clip0_6321_44093)">
<path d="M53.1728 39.9468C60.7159 39.9468 67.0019 45.969 67.0019 53.6718L67.2812 92.606C67.2812 100.169 61.2747 106.471 53.5919 106.471C45.909 106.471 39.7628 100.449 39.7628 92.746L39.4834 53.8118C39.4834 46.2491 45.6297 40.0868 53.1728 39.9468Z" fill="#6D9CB7"/>
<path d="M67.1417 53.3915C67.1417 60.9543 61.1351 67.2566 53.4523 67.2566L14.4795 67.5367C6.93633 67.5367 0.650391 61.5145 0.650391 53.8117C0.650391 46.2489 6.65696 39.9466 14.3398 39.9466L53.3126 39.6665C60.8558 39.6665 67.1417 45.6887 67.1417 53.3915Z" fill="#6D9CB7"/>
<path d="M52.8934 0.732422C52.7537 0.732422 52.7537 0.732422 52.6141 0.732422C45.0709 0.872473 38.9247 7.17477 39.0643 14.7375L39.4834 39.8067L53.1728 39.6666H53.3125C54.1506 39.6666 55.1284 39.8067 55.9666 39.9467L67.1416 39.8067L66.7225 14.3174C66.5828 6.75462 60.4366 0.732422 52.8934 0.732422Z" fill="#C7DADE"/>
<path d="M92.4253 39.3865C92.2856 39.3865 92.2856 39.3865 92.1459 39.3865L67.0022 39.8066L55.8271 39.9467C62.1131 41.2071 67.0022 46.6691 67.0022 53.3916C67.0022 53.8117 67.0022 54.0918 67.0022 54.512L67.1418 67.3967L92.565 66.9765C100.108 66.8365 106.254 60.5342 106.115 52.9714C106.115 45.4087 99.9684 39.3865 92.4253 39.3865Z" fill="#C7DADE"/>
<path d="M82.3677 9.83569H86.2789V28.8826H82.3677V9.83569Z" fill="#6D9CB7"/>
<path d="M93.6822 16.6982C94.3806 15.4377 95.6378 14.5974 97.3141 14.5974C100.248 14.5974 102.203 16.8382 102.203 19.7793V28.8826H98.4316V20.8997C98.4316 19.3591 97.4538 18.3788 96.0569 18.3788C94.66 18.3788 93.8219 19.3591 93.6822 20.7597V28.8826H89.9106V14.8775H93.6822V16.6982Z" fill="#6D9CB7"/>
<path d="M105.975 28.8827V18.2388H103.88V14.8776H106.255V11.9365L109.886 11.0962V14.8776H112.261V18.0987H109.886V28.8827H105.975Z" fill="#6D9CB7"/>
<path d="M116.591 23.1404C116.87 24.6809 118.267 25.8013 120.223 25.8013C121.899 25.8013 123.715 25.2411 124.972 24.5409V28.1822C123.715 28.8825 121.899 29.3026 119.943 29.3026C115.753 29.3026 112.819 26.3615 112.819 22.02C112.819 17.9585 115.753 14.7373 119.804 14.7373C123.855 14.7373 126.369 17.6784 126.369 21.3197C126.369 21.8799 126.229 22.7202 126.09 23.1404H116.591ZM116.591 20.1993H122.597C122.597 18.7988 121.34 17.8184 119.664 17.8184C118.127 17.8184 116.87 18.9388 116.591 20.1993Z" fill="#6D9CB7"/>
<path d="M132.096 16.6982C132.795 15.4377 134.052 14.5974 135.728 14.5974C138.662 14.5974 140.617 16.8382 140.617 19.7793V28.8826H136.846V20.8997C136.846 19.3591 135.868 18.3788 134.471 18.3788C133.074 18.3788 132.236 19.3591 132.096 20.7597V28.8826H128.325V14.8775H132.096V16.6982Z" fill="#6D9CB7"/>
<path d="M151.234 18.939C150.396 18.3788 149.139 17.9586 148.161 17.9586C147.183 17.9586 146.764 18.3788 146.764 18.939C146.764 19.3591 147.043 19.6392 147.602 19.9194L149.558 21.0398C151.234 22.0201 151.793 23.4206 151.793 24.8211C151.793 27.202 149.977 29.0227 146.624 29.0227C145.367 29.0227 143.97 28.7426 142.992 28.3224V24.6811C143.691 25.2413 145.227 25.9415 146.345 25.9415C147.323 25.9415 147.742 25.5214 147.742 24.9612C147.742 24.541 147.462 24.1209 146.764 23.7007L144.529 22.4403C143.132 21.6 142.573 20.1995 142.573 18.7989C142.573 16.278 144.529 14.5974 147.742 14.5974C148.72 14.5974 149.977 14.7375 150.955 15.0176V18.939H151.234Z" fill="#6D9CB7"/>
<path d="M156.123 8.5752C157.38 8.5752 158.358 9.55555 158.358 10.816C158.358 12.0765 157.38 13.0568 156.123 13.0568C154.866 13.0568 153.888 12.0765 153.888 10.816C153.888 9.55555 154.726 8.5752 156.123 8.5752ZM157.939 28.8826H154.167V14.8775H157.939V28.8826Z" fill="#6D9CB7"/>
<path d="M163.386 14.8774L166.599 24.1208L169.812 14.8774H173.863L168.555 28.8825H164.504L159.196 14.8774H163.386Z" fill="#6D9CB7"/>
<path d="M116.871 43.448H120.782V51.1508L125.671 43.448H130.281L125.252 51.2909L130.7 62.4949H126.09L122.458 54.6521L120.782 56.8929V62.4949H116.871V43.448Z" fill="#6D9CB7"/>
<path d="M137.684 48.2097C141.735 48.2097 144.948 51.4309 144.948 55.4924C144.948 59.5539 141.735 62.775 137.684 62.775C133.633 62.775 130.42 59.5539 130.42 55.4924C130.56 51.4309 133.633 48.2097 137.684 48.2097ZM137.684 59.1337C139.64 59.1337 141.037 57.4531 141.037 55.6324C141.037 53.6717 139.64 52.1311 137.684 52.1311C135.729 52.1311 134.332 53.6717 134.332 55.6324C134.332 57.4531 135.868 59.1337 137.684 59.1337Z" fill="#6D9CB7"/>
<path d="M150.955 50.3105C151.653 49.05 152.91 48.2097 154.587 48.2097C157.52 48.2097 159.476 50.4505 159.476 53.3916V62.4949H155.704V54.512C155.704 52.9715 154.726 51.9911 153.329 51.9911C151.932 51.9911 151.094 52.9715 150.955 54.372V62.4949H147.183V48.4898H150.955V50.3105Z" fill="#6D9CB7"/>
<path d="M163.247 62.4949V51.851H161.152V48.4898H163.527V45.4087L167.158 44.5684V48.4898H169.533V51.711H167.158V62.4949H163.247Z" fill="#6D9CB7"/>
<path d="M171.489 49.05C172.467 48.6299 174.003 48.2097 175.54 48.2097C179.311 48.2097 181.407 50.0304 181.407 54.0919V62.4949H177.635V61.5146C176.937 62.3549 175.819 62.9151 174.562 62.9151C171.489 62.9151 169.952 60.6743 169.952 58.4334C169.952 55.9125 171.768 53.9518 174.562 53.9518C175.679 53.9518 176.937 54.372 177.635 54.9322V54.0919C177.635 52.4112 176.517 51.711 175.121 51.711C173.863 51.711 172.606 52.1311 171.489 52.6913V49.05ZM175.679 59.974C176.797 59.974 177.635 59.2737 177.635 58.2934C177.635 57.313 176.797 56.6128 175.679 56.6128C174.562 56.6128 173.724 57.313 173.724 58.2934C173.724 59.2737 174.562 59.974 175.679 59.974Z" fill="#6D9CB7"/>
<path d="M184.2 43.168H187.972V53.8118L191.743 48.4899H196.213L192.023 54.0919L196.213 62.355H191.743L189.089 56.7529L187.832 58.4335V62.495H184.061V43.168H184.2Z" fill="#6D9CB7"/>
<path d="M198.867 62.4949V51.851H196.772V48.4898H199.147V45.4087L202.779 44.5684V48.4898H205.153V51.711H202.779V62.4949H198.867Z" fill="#6D9CB7"/>
<path d="M207.811 42.5682V38.0193H210.092C210.315 38.0193 210.537 38.0748 210.76 38.1857C210.987 38.2926 211.174 38.4569 211.323 38.6788C211.475 38.8966 211.551 39.1678 211.551 39.4925C211.551 39.8212 211.473 40.1006 211.316 40.3307C211.16 40.5608 210.964 40.7355 210.729 40.8546C210.494 40.9738 210.259 41.0334 210.024 41.0334H208.405V40.2506H209.74C209.888 40.2506 210.035 40.1869 210.179 40.0595C210.327 39.9321 210.401 39.7431 210.401 39.4925C210.401 39.2295 210.327 39.0487 210.179 38.95C210.035 38.8514 209.895 38.8021 209.759 38.8021H208.875V42.5682H207.811ZM210.618 40.4355L211.724 42.5682H210.556L209.493 40.4355H210.618ZM209.561 45.2802C208.877 45.2802 208.236 45.1528 207.638 44.8981C207.041 44.6433 206.515 44.2899 206.062 43.8379C205.608 43.3859 205.254 42.862 204.999 42.2661C204.743 41.6703 204.615 41.0313 204.615 40.3492C204.615 39.6671 204.743 39.0281 204.999 38.4323C205.254 37.8365 205.608 37.3125 206.062 36.8605C206.515 36.4085 207.041 36.0551 207.638 35.8004C208.236 35.5456 208.877 35.4182 209.561 35.4182C210.245 35.4182 210.886 35.5456 211.483 35.8004C212.081 36.0551 212.606 36.4085 213.06 36.8605C213.513 37.3125 213.867 37.8365 214.123 38.4323C214.378 39.0281 214.506 39.6671 214.506 40.3492C214.506 41.0313 214.378 41.6703 214.123 42.2661C213.867 42.862 213.513 43.3859 213.06 43.8379C212.606 44.2899 212.081 44.6433 211.483 44.8981C210.886 45.1528 210.245 45.2802 209.561 45.2802ZM209.561 44.0598C210.245 44.0598 210.867 43.8934 211.428 43.5605C211.992 43.2236 212.441 42.7757 212.775 42.2168C213.109 41.6539 213.276 41.0313 213.276 40.3492C213.276 39.6671 213.109 39.0466 212.775 38.4878C212.441 37.9248 211.992 37.4769 211.428 37.1441C210.867 36.8071 210.245 36.6386 209.561 36.6386C208.877 36.6386 208.252 36.8071 207.688 37.1441C207.123 37.4769 206.674 37.9248 206.34 38.4878C206.006 39.0466 205.839 39.6671 205.839 40.3492C205.839 41.0313 206.006 41.6539 206.34 42.2168C206.674 42.7757 207.123 43.2236 207.688 43.5605C208.252 43.8934 208.877 44.0598 209.561 44.0598Z" fill="#6D9CB7"/>
</g>
<defs>
<clipPath id="clip0_6321_44093">
<rect width="214.699" height="108" fill="white" transform="translate(0.650391)"/>
</clipPath>
</defs>
</svg>
